%
M48
M72
T01C0.0120
T02C0.0180
T03C0.0197
T04C0.0320
T05C0.0400
T06C0.0433
T07C0.0512
T08C0.0590
T09C0.0787
T10C0.1181
%
T01
X14513Y10303
X17453Y8203
X17873Y8983
X14813Y7633
X17813Y14533
X16223Y16273
X19163Y18283
X16823Y21763
X16553Y22393
X19643Y23833
X16823Y26233
X17663Y29203
X21683Y28603
X21683Y27583
X21683Y26803
X21683Y26503
X22163Y26683
X22853Y27613
X23303Y28423
X24533Y27793
X24743Y28033
X25433Y28033
X25703Y27763
X27083Y29443
X26213Y29623
X26693Y31783
X25403Y31783
X23573Y26293
X23903Y23833
X22853Y22723
X22523Y23053
X26333Y24313
X27173Y24493
X27653Y25153
X28523Y24493
X29453Y24493
X29483Y24913
X29273Y25183
X29303Y25813
X29003Y26113
X29513Y26233
X29303Y27493
X29183Y28423
X30113Y28753
X28883Y29893
X29393Y30103
X29603Y30793
X30443Y31393
X32873Y31723
X33323Y30943
X34133Y31783
X34433Y31723
X37523Y30943
X38363Y33133
X34373Y28633
X34823Y27583
X35063Y27043
X35363Y27043
X33863Y26653
X33113Y26203
X33353Y25843
X33623Y25393
X34613Y24973
X35033Y24853
X35033Y25153
X34613Y24223
X33143Y23113
X32693Y23773
X32933Y24013
X31523Y23533
X30803Y24493
X30773Y24823
X30383Y24613
X30173Y25003
X31733Y25183
X32603Y25873
X31523Y26713
X31193Y26683
X31253Y28753
X29243Y23653
X28943Y23653
X28373Y23533
X28073Y23653
X28523Y22303
X29273Y20983
X29723Y20893
X29723Y21193
X30203Y22243
X30083Y22603
X30383Y22603
X29753Y23443
X32003Y22243
X32003Y21553
X31073Y21133
X29933Y19603
X29273Y18913
X29783Y18073
X32093Y19123
X32213Y16933
X31733Y15853
X32243Y13903
X31823Y13483
X33413Y12613
X32423Y9013
X30233Y6973
X30023Y6193
X31643Y5713
X42083Y12943
X42083Y14083
X41573Y16003
X41363Y17353
X41273Y25723
X36143Y23593
X28133Y20113
T02
X15803Y19333
X30443Y32623
X31313Y32413
X40913Y24973
X36893Y19453
X36533Y19033
X34013Y18613
X31703Y17953
T03
X8674Y28309
X9601Y28311
X10487Y28312
X10491Y29328
X9591Y29326
X8684Y29326
X32991Y17213
X33075Y16073
T04
X5959Y15013
X5959Y15813
X8124Y15419
X8124Y16219
X14476Y22098
X15276Y22098
X17323Y23683
X17323Y24483
X19733Y24338
X19733Y25138
X16383Y27628
X16383Y28428
X18968Y28123
X18968Y30023
X17268Y31258
X16468Y31258
X10711Y26722
X9911Y26722
X9793Y30303
X9793Y31103
X19070Y19972
X19870Y19972
X24403Y19979
X25203Y19979
X32013Y18678
X33013Y18678
X39605Y25361
X40405Y25361
T05
X18768Y4508
X17768Y4508
X16768Y4508
X15768Y4508
X11943Y4893
X10943Y4893
X9943Y4893
X9943Y6393
X10943Y6393
X11943Y6393
X11943Y7893
X10943Y7893
X9943Y7893
X9943Y9393
X10943Y9393
X11943Y9393
X11943Y10893
X10943Y10893
X9943Y10893
X9943Y12393
X10943Y12393
X11943Y12393
X11943Y13893
X10943Y13893
X9943Y13893
X9943Y15393
X10943Y15393
X11943Y15393
X11943Y16893
X10943Y16893
X9943Y16893
X9943Y18393
X10943Y18393
X11943Y18393
X11943Y19893
X10943Y19893
X9943Y19893
X12183Y27603
X13183Y27603
X13368Y30758
X14368Y30758
X12368Y30758
X15368Y33258
X16368Y33258
X17368Y33258
X19883Y33688
X20883Y33688
X21883Y33688
X22883Y33688
X23883Y33688
X24883Y33688
X25883Y33688
X26883Y33688
X28654Y33621
X29654Y33621
X32104Y33597
X33104Y33597
X19393Y22773
X19393Y21773
X18458Y17898
X18458Y16898
X18458Y15898
X18458Y14898
X18458Y13898
X37443Y19893
X38443Y19893
X39443Y19893
X39443Y18393
X38443Y18393
X37443Y18393
X37443Y16893
X38443Y16893
X39443Y16893
X39443Y15393
X38443Y15393
X37443Y15393
X37443Y13893
X38443Y13893
X39443Y13893
X39443Y12393
X38443Y12393
X37443Y12393
X37443Y10893
X38443Y10893
X39443Y10893
X39443Y9393
X38443Y9393
X37443Y9393
X37443Y7893
X38443Y7893
X39443Y7893
X39443Y6393
X38443Y6393
X37443Y6393
X37443Y4893
X38443Y4893
X39443Y4893
T06
X7065Y3728
X7065Y5696
X6088Y18788
X6088Y19788
X6088Y20788
T07
X8640Y3807
X5687Y3590
X5687Y5834
X8640Y5618
X6510Y27079
X6510Y29079
T08
X6868Y33258
X12868Y33258
T09
X22412Y31511
X33708Y23401
T10
X6911Y9586
X6911Y23366
X42344Y23366
X42344Y9586
M30
