G75*
%MOIN*%
%OFA0B0*%
%FSLAX25Y25*%
%IPPOS*%
%LPD*%
%AMOC8*
5,1,8,0,0,1.08239X$1,22.5*
%
%ADD10C,0.00000*%
%ADD11C,0.00400*%
%ADD12C,0.00600*%
%ADD13C,0.00300*%
%ADD14C,0.00500*%
%ADD15C,0.00800*%
%ADD16C,0.00200*%
%ADD17C,0.00060*%
%ADD18C,0.01000*%
%ADD19C,0.00100*%
D10*
X0049428Y0028933D02*
X0197066Y0028933D01*
X0197066Y0184445D01*
X0295491Y0184445D01*
X0295491Y0028933D01*
X0443129Y0028933D01*
X0443129Y0346059D01*
X0049428Y0346059D01*
X0049428Y0028933D01*
X0068484Y0037280D02*
X0068486Y0037373D01*
X0068492Y0037465D01*
X0068502Y0037557D01*
X0068516Y0037648D01*
X0068533Y0037739D01*
X0068555Y0037829D01*
X0068580Y0037918D01*
X0068609Y0038006D01*
X0068642Y0038092D01*
X0068679Y0038177D01*
X0068719Y0038261D01*
X0068763Y0038342D01*
X0068810Y0038422D01*
X0068860Y0038500D01*
X0068914Y0038575D01*
X0068971Y0038648D01*
X0069031Y0038718D01*
X0069094Y0038786D01*
X0069160Y0038851D01*
X0069228Y0038913D01*
X0069299Y0038973D01*
X0069373Y0039029D01*
X0069449Y0039082D01*
X0069527Y0039131D01*
X0069607Y0039178D01*
X0069689Y0039220D01*
X0069773Y0039260D01*
X0069858Y0039295D01*
X0069945Y0039327D01*
X0070033Y0039356D01*
X0070122Y0039380D01*
X0070212Y0039401D01*
X0070303Y0039417D01*
X0070395Y0039430D01*
X0070487Y0039439D01*
X0070580Y0039444D01*
X0070672Y0039445D01*
X0070765Y0039442D01*
X0070857Y0039435D01*
X0070949Y0039424D01*
X0071040Y0039409D01*
X0071131Y0039391D01*
X0071221Y0039368D01*
X0071309Y0039342D01*
X0071397Y0039312D01*
X0071483Y0039278D01*
X0071567Y0039241D01*
X0071650Y0039199D01*
X0071731Y0039155D01*
X0071811Y0039107D01*
X0071888Y0039056D01*
X0071962Y0039001D01*
X0072035Y0038943D01*
X0072105Y0038883D01*
X0072172Y0038819D01*
X0072236Y0038753D01*
X0072298Y0038683D01*
X0072356Y0038612D01*
X0072411Y0038538D01*
X0072463Y0038461D01*
X0072512Y0038382D01*
X0072558Y0038302D01*
X0072600Y0038219D01*
X0072638Y0038135D01*
X0072673Y0038049D01*
X0072704Y0037962D01*
X0072731Y0037874D01*
X0072754Y0037784D01*
X0072774Y0037694D01*
X0072790Y0037603D01*
X0072802Y0037511D01*
X0072810Y0037419D01*
X0072814Y0037326D01*
X0072814Y0037234D01*
X0072810Y0037141D01*
X0072802Y0037049D01*
X0072790Y0036957D01*
X0072774Y0036866D01*
X0072754Y0036776D01*
X0072731Y0036686D01*
X0072704Y0036598D01*
X0072673Y0036511D01*
X0072638Y0036425D01*
X0072600Y0036341D01*
X0072558Y0036258D01*
X0072512Y0036178D01*
X0072463Y0036099D01*
X0072411Y0036022D01*
X0072356Y0035948D01*
X0072298Y0035877D01*
X0072236Y0035807D01*
X0072172Y0035741D01*
X0072105Y0035677D01*
X0072035Y0035617D01*
X0071962Y0035559D01*
X0071888Y0035504D01*
X0071811Y0035453D01*
X0071732Y0035405D01*
X0071650Y0035361D01*
X0071567Y0035319D01*
X0071483Y0035282D01*
X0071397Y0035248D01*
X0071309Y0035218D01*
X0071221Y0035192D01*
X0071131Y0035169D01*
X0071040Y0035151D01*
X0070949Y0035136D01*
X0070857Y0035125D01*
X0070765Y0035118D01*
X0070672Y0035115D01*
X0070580Y0035116D01*
X0070487Y0035121D01*
X0070395Y0035130D01*
X0070303Y0035143D01*
X0070212Y0035159D01*
X0070122Y0035180D01*
X0070033Y0035204D01*
X0069945Y0035233D01*
X0069858Y0035265D01*
X0069773Y0035300D01*
X0069689Y0035340D01*
X0069607Y0035382D01*
X0069527Y0035429D01*
X0069449Y0035478D01*
X0069373Y0035531D01*
X0069299Y0035587D01*
X0069228Y0035647D01*
X0069160Y0035709D01*
X0069094Y0035774D01*
X0069031Y0035842D01*
X0068971Y0035912D01*
X0068914Y0035985D01*
X0068860Y0036060D01*
X0068810Y0036138D01*
X0068763Y0036218D01*
X0068719Y0036299D01*
X0068679Y0036383D01*
X0068642Y0036468D01*
X0068609Y0036554D01*
X0068580Y0036642D01*
X0068555Y0036731D01*
X0068533Y0036821D01*
X0068516Y0036912D01*
X0068502Y0037003D01*
X0068492Y0037095D01*
X0068486Y0037187D01*
X0068484Y0037280D01*
X0068484Y0056965D02*
X0068486Y0057058D01*
X0068492Y0057150D01*
X0068502Y0057242D01*
X0068516Y0057333D01*
X0068533Y0057424D01*
X0068555Y0057514D01*
X0068580Y0057603D01*
X0068609Y0057691D01*
X0068642Y0057777D01*
X0068679Y0057862D01*
X0068719Y0057946D01*
X0068763Y0058027D01*
X0068810Y0058107D01*
X0068860Y0058185D01*
X0068914Y0058260D01*
X0068971Y0058333D01*
X0069031Y0058403D01*
X0069094Y0058471D01*
X0069160Y0058536D01*
X0069228Y0058598D01*
X0069299Y0058658D01*
X0069373Y0058714D01*
X0069449Y0058767D01*
X0069527Y0058816D01*
X0069607Y0058863D01*
X0069689Y0058905D01*
X0069773Y0058945D01*
X0069858Y0058980D01*
X0069945Y0059012D01*
X0070033Y0059041D01*
X0070122Y0059065D01*
X0070212Y0059086D01*
X0070303Y0059102D01*
X0070395Y0059115D01*
X0070487Y0059124D01*
X0070580Y0059129D01*
X0070672Y0059130D01*
X0070765Y0059127D01*
X0070857Y0059120D01*
X0070949Y0059109D01*
X0071040Y0059094D01*
X0071131Y0059076D01*
X0071221Y0059053D01*
X0071309Y0059027D01*
X0071397Y0058997D01*
X0071483Y0058963D01*
X0071567Y0058926D01*
X0071650Y0058884D01*
X0071731Y0058840D01*
X0071811Y0058792D01*
X0071888Y0058741D01*
X0071962Y0058686D01*
X0072035Y0058628D01*
X0072105Y0058568D01*
X0072172Y0058504D01*
X0072236Y0058438D01*
X0072298Y0058368D01*
X0072356Y0058297D01*
X0072411Y0058223D01*
X0072463Y0058146D01*
X0072512Y0058067D01*
X0072558Y0057987D01*
X0072600Y0057904D01*
X0072638Y0057820D01*
X0072673Y0057734D01*
X0072704Y0057647D01*
X0072731Y0057559D01*
X0072754Y0057469D01*
X0072774Y0057379D01*
X0072790Y0057288D01*
X0072802Y0057196D01*
X0072810Y0057104D01*
X0072814Y0057011D01*
X0072814Y0056919D01*
X0072810Y0056826D01*
X0072802Y0056734D01*
X0072790Y0056642D01*
X0072774Y0056551D01*
X0072754Y0056461D01*
X0072731Y0056371D01*
X0072704Y0056283D01*
X0072673Y0056196D01*
X0072638Y0056110D01*
X0072600Y0056026D01*
X0072558Y0055943D01*
X0072512Y0055863D01*
X0072463Y0055784D01*
X0072411Y0055707D01*
X0072356Y0055633D01*
X0072298Y0055562D01*
X0072236Y0055492D01*
X0072172Y0055426D01*
X0072105Y0055362D01*
X0072035Y0055302D01*
X0071962Y0055244D01*
X0071888Y0055189D01*
X0071811Y0055138D01*
X0071732Y0055090D01*
X0071650Y0055046D01*
X0071567Y0055004D01*
X0071483Y0054967D01*
X0071397Y0054933D01*
X0071309Y0054903D01*
X0071221Y0054877D01*
X0071131Y0054854D01*
X0071040Y0054836D01*
X0070949Y0054821D01*
X0070857Y0054810D01*
X0070765Y0054803D01*
X0070672Y0054800D01*
X0070580Y0054801D01*
X0070487Y0054806D01*
X0070395Y0054815D01*
X0070303Y0054828D01*
X0070212Y0054844D01*
X0070122Y0054865D01*
X0070033Y0054889D01*
X0069945Y0054918D01*
X0069858Y0054950D01*
X0069773Y0054985D01*
X0069689Y0055025D01*
X0069607Y0055067D01*
X0069527Y0055114D01*
X0069449Y0055163D01*
X0069373Y0055216D01*
X0069299Y0055272D01*
X0069228Y0055332D01*
X0069160Y0055394D01*
X0069094Y0055459D01*
X0069031Y0055527D01*
X0068971Y0055597D01*
X0068914Y0055670D01*
X0068860Y0055745D01*
X0068810Y0055823D01*
X0068763Y0055903D01*
X0068719Y0055984D01*
X0068679Y0056068D01*
X0068642Y0056153D01*
X0068609Y0056239D01*
X0068580Y0056327D01*
X0068555Y0056416D01*
X0068533Y0056506D01*
X0068516Y0056597D01*
X0068502Y0056688D01*
X0068492Y0056780D01*
X0068486Y0056872D01*
X0068484Y0056965D01*
X0063208Y0095862D02*
X0063210Y0096015D01*
X0063216Y0096169D01*
X0063226Y0096322D01*
X0063240Y0096474D01*
X0063258Y0096627D01*
X0063280Y0096778D01*
X0063305Y0096929D01*
X0063335Y0097080D01*
X0063369Y0097230D01*
X0063406Y0097378D01*
X0063447Y0097526D01*
X0063492Y0097672D01*
X0063541Y0097818D01*
X0063594Y0097962D01*
X0063650Y0098104D01*
X0063710Y0098245D01*
X0063774Y0098385D01*
X0063841Y0098523D01*
X0063912Y0098659D01*
X0063987Y0098793D01*
X0064064Y0098925D01*
X0064146Y0099055D01*
X0064230Y0099183D01*
X0064318Y0099309D01*
X0064409Y0099432D01*
X0064503Y0099553D01*
X0064601Y0099671D01*
X0064701Y0099787D01*
X0064805Y0099900D01*
X0064911Y0100011D01*
X0065020Y0100119D01*
X0065132Y0100224D01*
X0065246Y0100325D01*
X0065364Y0100424D01*
X0065483Y0100520D01*
X0065605Y0100613D01*
X0065730Y0100702D01*
X0065857Y0100789D01*
X0065986Y0100871D01*
X0066117Y0100951D01*
X0066250Y0101027D01*
X0066385Y0101100D01*
X0066522Y0101169D01*
X0066661Y0101234D01*
X0066801Y0101296D01*
X0066943Y0101354D01*
X0067086Y0101409D01*
X0067231Y0101460D01*
X0067377Y0101507D01*
X0067524Y0101550D01*
X0067672Y0101589D01*
X0067821Y0101625D01*
X0067971Y0101656D01*
X0068122Y0101684D01*
X0068273Y0101708D01*
X0068426Y0101728D01*
X0068578Y0101744D01*
X0068731Y0101756D01*
X0068884Y0101764D01*
X0069037Y0101768D01*
X0069191Y0101768D01*
X0069344Y0101764D01*
X0069497Y0101756D01*
X0069650Y0101744D01*
X0069802Y0101728D01*
X0069955Y0101708D01*
X0070106Y0101684D01*
X0070257Y0101656D01*
X0070407Y0101625D01*
X0070556Y0101589D01*
X0070704Y0101550D01*
X0070851Y0101507D01*
X0070997Y0101460D01*
X0071142Y0101409D01*
X0071285Y0101354D01*
X0071427Y0101296D01*
X0071567Y0101234D01*
X0071706Y0101169D01*
X0071843Y0101100D01*
X0071978Y0101027D01*
X0072111Y0100951D01*
X0072242Y0100871D01*
X0072371Y0100789D01*
X0072498Y0100702D01*
X0072623Y0100613D01*
X0072745Y0100520D01*
X0072864Y0100424D01*
X0072982Y0100325D01*
X0073096Y0100224D01*
X0073208Y0100119D01*
X0073317Y0100011D01*
X0073423Y0099900D01*
X0073527Y0099787D01*
X0073627Y0099671D01*
X0073725Y0099553D01*
X0073819Y0099432D01*
X0073910Y0099309D01*
X0073998Y0099183D01*
X0074082Y0099055D01*
X0074164Y0098925D01*
X0074241Y0098793D01*
X0074316Y0098659D01*
X0074387Y0098523D01*
X0074454Y0098385D01*
X0074518Y0098245D01*
X0074578Y0098104D01*
X0074634Y0097962D01*
X0074687Y0097818D01*
X0074736Y0097672D01*
X0074781Y0097526D01*
X0074822Y0097378D01*
X0074859Y0097230D01*
X0074893Y0097080D01*
X0074923Y0096929D01*
X0074948Y0096778D01*
X0074970Y0096627D01*
X0074988Y0096474D01*
X0075002Y0096322D01*
X0075012Y0096169D01*
X0075018Y0096015D01*
X0075020Y0095862D01*
X0075018Y0095709D01*
X0075012Y0095555D01*
X0075002Y0095402D01*
X0074988Y0095250D01*
X0074970Y0095097D01*
X0074948Y0094946D01*
X0074923Y0094795D01*
X0074893Y0094644D01*
X0074859Y0094494D01*
X0074822Y0094346D01*
X0074781Y0094198D01*
X0074736Y0094052D01*
X0074687Y0093906D01*
X0074634Y0093762D01*
X0074578Y0093620D01*
X0074518Y0093479D01*
X0074454Y0093339D01*
X0074387Y0093201D01*
X0074316Y0093065D01*
X0074241Y0092931D01*
X0074164Y0092799D01*
X0074082Y0092669D01*
X0073998Y0092541D01*
X0073910Y0092415D01*
X0073819Y0092292D01*
X0073725Y0092171D01*
X0073627Y0092053D01*
X0073527Y0091937D01*
X0073423Y0091824D01*
X0073317Y0091713D01*
X0073208Y0091605D01*
X0073096Y0091500D01*
X0072982Y0091399D01*
X0072864Y0091300D01*
X0072745Y0091204D01*
X0072623Y0091111D01*
X0072498Y0091022D01*
X0072371Y0090935D01*
X0072242Y0090853D01*
X0072111Y0090773D01*
X0071978Y0090697D01*
X0071843Y0090624D01*
X0071706Y0090555D01*
X0071567Y0090490D01*
X0071427Y0090428D01*
X0071285Y0090370D01*
X0071142Y0090315D01*
X0070997Y0090264D01*
X0070851Y0090217D01*
X0070704Y0090174D01*
X0070556Y0090135D01*
X0070407Y0090099D01*
X0070257Y0090068D01*
X0070106Y0090040D01*
X0069955Y0090016D01*
X0069802Y0089996D01*
X0069650Y0089980D01*
X0069497Y0089968D01*
X0069344Y0089960D01*
X0069191Y0089956D01*
X0069037Y0089956D01*
X0068884Y0089960D01*
X0068731Y0089968D01*
X0068578Y0089980D01*
X0068426Y0089996D01*
X0068273Y0090016D01*
X0068122Y0090040D01*
X0067971Y0090068D01*
X0067821Y0090099D01*
X0067672Y0090135D01*
X0067524Y0090174D01*
X0067377Y0090217D01*
X0067231Y0090264D01*
X0067086Y0090315D01*
X0066943Y0090370D01*
X0066801Y0090428D01*
X0066661Y0090490D01*
X0066522Y0090555D01*
X0066385Y0090624D01*
X0066250Y0090697D01*
X0066117Y0090773D01*
X0065986Y0090853D01*
X0065857Y0090935D01*
X0065730Y0091022D01*
X0065605Y0091111D01*
X0065483Y0091204D01*
X0065364Y0091300D01*
X0065246Y0091399D01*
X0065132Y0091500D01*
X0065020Y0091605D01*
X0064911Y0091713D01*
X0064805Y0091824D01*
X0064701Y0091937D01*
X0064601Y0092053D01*
X0064503Y0092171D01*
X0064409Y0092292D01*
X0064318Y0092415D01*
X0064230Y0092541D01*
X0064146Y0092669D01*
X0064064Y0092799D01*
X0063987Y0092931D01*
X0063912Y0093065D01*
X0063841Y0093201D01*
X0063774Y0093339D01*
X0063710Y0093479D01*
X0063650Y0093620D01*
X0063594Y0093762D01*
X0063541Y0093906D01*
X0063492Y0094052D01*
X0063447Y0094198D01*
X0063406Y0094346D01*
X0063369Y0094494D01*
X0063335Y0094644D01*
X0063305Y0094795D01*
X0063280Y0094946D01*
X0063258Y0095097D01*
X0063240Y0095250D01*
X0063226Y0095402D01*
X0063216Y0095555D01*
X0063210Y0095709D01*
X0063208Y0095862D01*
X0063208Y0233657D02*
X0063210Y0233810D01*
X0063216Y0233964D01*
X0063226Y0234117D01*
X0063240Y0234269D01*
X0063258Y0234422D01*
X0063280Y0234573D01*
X0063305Y0234724D01*
X0063335Y0234875D01*
X0063369Y0235025D01*
X0063406Y0235173D01*
X0063447Y0235321D01*
X0063492Y0235467D01*
X0063541Y0235613D01*
X0063594Y0235757D01*
X0063650Y0235899D01*
X0063710Y0236040D01*
X0063774Y0236180D01*
X0063841Y0236318D01*
X0063912Y0236454D01*
X0063987Y0236588D01*
X0064064Y0236720D01*
X0064146Y0236850D01*
X0064230Y0236978D01*
X0064318Y0237104D01*
X0064409Y0237227D01*
X0064503Y0237348D01*
X0064601Y0237466D01*
X0064701Y0237582D01*
X0064805Y0237695D01*
X0064911Y0237806D01*
X0065020Y0237914D01*
X0065132Y0238019D01*
X0065246Y0238120D01*
X0065364Y0238219D01*
X0065483Y0238315D01*
X0065605Y0238408D01*
X0065730Y0238497D01*
X0065857Y0238584D01*
X0065986Y0238666D01*
X0066117Y0238746D01*
X0066250Y0238822D01*
X0066385Y0238895D01*
X0066522Y0238964D01*
X0066661Y0239029D01*
X0066801Y0239091D01*
X0066943Y0239149D01*
X0067086Y0239204D01*
X0067231Y0239255D01*
X0067377Y0239302D01*
X0067524Y0239345D01*
X0067672Y0239384D01*
X0067821Y0239420D01*
X0067971Y0239451D01*
X0068122Y0239479D01*
X0068273Y0239503D01*
X0068426Y0239523D01*
X0068578Y0239539D01*
X0068731Y0239551D01*
X0068884Y0239559D01*
X0069037Y0239563D01*
X0069191Y0239563D01*
X0069344Y0239559D01*
X0069497Y0239551D01*
X0069650Y0239539D01*
X0069802Y0239523D01*
X0069955Y0239503D01*
X0070106Y0239479D01*
X0070257Y0239451D01*
X0070407Y0239420D01*
X0070556Y0239384D01*
X0070704Y0239345D01*
X0070851Y0239302D01*
X0070997Y0239255D01*
X0071142Y0239204D01*
X0071285Y0239149D01*
X0071427Y0239091D01*
X0071567Y0239029D01*
X0071706Y0238964D01*
X0071843Y0238895D01*
X0071978Y0238822D01*
X0072111Y0238746D01*
X0072242Y0238666D01*
X0072371Y0238584D01*
X0072498Y0238497D01*
X0072623Y0238408D01*
X0072745Y0238315D01*
X0072864Y0238219D01*
X0072982Y0238120D01*
X0073096Y0238019D01*
X0073208Y0237914D01*
X0073317Y0237806D01*
X0073423Y0237695D01*
X0073527Y0237582D01*
X0073627Y0237466D01*
X0073725Y0237348D01*
X0073819Y0237227D01*
X0073910Y0237104D01*
X0073998Y0236978D01*
X0074082Y0236850D01*
X0074164Y0236720D01*
X0074241Y0236588D01*
X0074316Y0236454D01*
X0074387Y0236318D01*
X0074454Y0236180D01*
X0074518Y0236040D01*
X0074578Y0235899D01*
X0074634Y0235757D01*
X0074687Y0235613D01*
X0074736Y0235467D01*
X0074781Y0235321D01*
X0074822Y0235173D01*
X0074859Y0235025D01*
X0074893Y0234875D01*
X0074923Y0234724D01*
X0074948Y0234573D01*
X0074970Y0234422D01*
X0074988Y0234269D01*
X0075002Y0234117D01*
X0075012Y0233964D01*
X0075018Y0233810D01*
X0075020Y0233657D01*
X0075018Y0233504D01*
X0075012Y0233350D01*
X0075002Y0233197D01*
X0074988Y0233045D01*
X0074970Y0232892D01*
X0074948Y0232741D01*
X0074923Y0232590D01*
X0074893Y0232439D01*
X0074859Y0232289D01*
X0074822Y0232141D01*
X0074781Y0231993D01*
X0074736Y0231847D01*
X0074687Y0231701D01*
X0074634Y0231557D01*
X0074578Y0231415D01*
X0074518Y0231274D01*
X0074454Y0231134D01*
X0074387Y0230996D01*
X0074316Y0230860D01*
X0074241Y0230726D01*
X0074164Y0230594D01*
X0074082Y0230464D01*
X0073998Y0230336D01*
X0073910Y0230210D01*
X0073819Y0230087D01*
X0073725Y0229966D01*
X0073627Y0229848D01*
X0073527Y0229732D01*
X0073423Y0229619D01*
X0073317Y0229508D01*
X0073208Y0229400D01*
X0073096Y0229295D01*
X0072982Y0229194D01*
X0072864Y0229095D01*
X0072745Y0228999D01*
X0072623Y0228906D01*
X0072498Y0228817D01*
X0072371Y0228730D01*
X0072242Y0228648D01*
X0072111Y0228568D01*
X0071978Y0228492D01*
X0071843Y0228419D01*
X0071706Y0228350D01*
X0071567Y0228285D01*
X0071427Y0228223D01*
X0071285Y0228165D01*
X0071142Y0228110D01*
X0070997Y0228059D01*
X0070851Y0228012D01*
X0070704Y0227969D01*
X0070556Y0227930D01*
X0070407Y0227894D01*
X0070257Y0227863D01*
X0070106Y0227835D01*
X0069955Y0227811D01*
X0069802Y0227791D01*
X0069650Y0227775D01*
X0069497Y0227763D01*
X0069344Y0227755D01*
X0069191Y0227751D01*
X0069037Y0227751D01*
X0068884Y0227755D01*
X0068731Y0227763D01*
X0068578Y0227775D01*
X0068426Y0227791D01*
X0068273Y0227811D01*
X0068122Y0227835D01*
X0067971Y0227863D01*
X0067821Y0227894D01*
X0067672Y0227930D01*
X0067524Y0227969D01*
X0067377Y0228012D01*
X0067231Y0228059D01*
X0067086Y0228110D01*
X0066943Y0228165D01*
X0066801Y0228223D01*
X0066661Y0228285D01*
X0066522Y0228350D01*
X0066385Y0228419D01*
X0066250Y0228492D01*
X0066117Y0228568D01*
X0065986Y0228648D01*
X0065857Y0228730D01*
X0065730Y0228817D01*
X0065605Y0228906D01*
X0065483Y0228999D01*
X0065364Y0229095D01*
X0065246Y0229194D01*
X0065132Y0229295D01*
X0065020Y0229400D01*
X0064911Y0229508D01*
X0064805Y0229619D01*
X0064701Y0229732D01*
X0064601Y0229848D01*
X0064503Y0229966D01*
X0064409Y0230087D01*
X0064318Y0230210D01*
X0064230Y0230336D01*
X0064146Y0230464D01*
X0064064Y0230594D01*
X0063987Y0230726D01*
X0063912Y0230860D01*
X0063841Y0230996D01*
X0063774Y0231134D01*
X0063710Y0231274D01*
X0063650Y0231415D01*
X0063594Y0231557D01*
X0063541Y0231701D01*
X0063492Y0231847D01*
X0063447Y0231993D01*
X0063406Y0232141D01*
X0063369Y0232289D01*
X0063335Y0232439D01*
X0063305Y0232590D01*
X0063280Y0232741D01*
X0063258Y0232892D01*
X0063240Y0233045D01*
X0063226Y0233197D01*
X0063216Y0233350D01*
X0063210Y0233504D01*
X0063208Y0233657D01*
X0220188Y0315107D02*
X0220190Y0315232D01*
X0220196Y0315357D01*
X0220206Y0315481D01*
X0220220Y0315605D01*
X0220237Y0315729D01*
X0220259Y0315852D01*
X0220285Y0315974D01*
X0220314Y0316096D01*
X0220347Y0316216D01*
X0220385Y0316335D01*
X0220425Y0316454D01*
X0220470Y0316570D01*
X0220518Y0316685D01*
X0220570Y0316799D01*
X0220626Y0316911D01*
X0220685Y0317021D01*
X0220747Y0317129D01*
X0220813Y0317236D01*
X0220882Y0317340D01*
X0220955Y0317441D01*
X0221030Y0317541D01*
X0221109Y0317638D01*
X0221191Y0317732D01*
X0221276Y0317824D01*
X0221363Y0317913D01*
X0221454Y0317999D01*
X0221547Y0318082D01*
X0221643Y0318163D01*
X0221741Y0318240D01*
X0221841Y0318314D01*
X0221944Y0318385D01*
X0222049Y0318452D01*
X0222157Y0318517D01*
X0222266Y0318577D01*
X0222377Y0318635D01*
X0222490Y0318688D01*
X0222604Y0318738D01*
X0222720Y0318785D01*
X0222837Y0318827D01*
X0222956Y0318866D01*
X0223076Y0318902D01*
X0223197Y0318933D01*
X0223319Y0318961D01*
X0223441Y0318984D01*
X0223565Y0319004D01*
X0223689Y0319020D01*
X0223813Y0319032D01*
X0223938Y0319040D01*
X0224063Y0319044D01*
X0224187Y0319044D01*
X0224312Y0319040D01*
X0224437Y0319032D01*
X0224561Y0319020D01*
X0224685Y0319004D01*
X0224809Y0318984D01*
X0224931Y0318961D01*
X0225053Y0318933D01*
X0225174Y0318902D01*
X0225294Y0318866D01*
X0225413Y0318827D01*
X0225530Y0318785D01*
X0225646Y0318738D01*
X0225760Y0318688D01*
X0225873Y0318635D01*
X0225984Y0318577D01*
X0226094Y0318517D01*
X0226201Y0318452D01*
X0226306Y0318385D01*
X0226409Y0318314D01*
X0226509Y0318240D01*
X0226607Y0318163D01*
X0226703Y0318082D01*
X0226796Y0317999D01*
X0226887Y0317913D01*
X0226974Y0317824D01*
X0227059Y0317732D01*
X0227141Y0317638D01*
X0227220Y0317541D01*
X0227295Y0317441D01*
X0227368Y0317340D01*
X0227437Y0317236D01*
X0227503Y0317129D01*
X0227565Y0317021D01*
X0227624Y0316911D01*
X0227680Y0316799D01*
X0227732Y0316685D01*
X0227780Y0316570D01*
X0227825Y0316454D01*
X0227865Y0316335D01*
X0227903Y0316216D01*
X0227936Y0316096D01*
X0227965Y0315974D01*
X0227991Y0315852D01*
X0228013Y0315729D01*
X0228030Y0315605D01*
X0228044Y0315481D01*
X0228054Y0315357D01*
X0228060Y0315232D01*
X0228062Y0315107D01*
X0228060Y0314982D01*
X0228054Y0314857D01*
X0228044Y0314733D01*
X0228030Y0314609D01*
X0228013Y0314485D01*
X0227991Y0314362D01*
X0227965Y0314240D01*
X0227936Y0314118D01*
X0227903Y0313998D01*
X0227865Y0313879D01*
X0227825Y0313760D01*
X0227780Y0313644D01*
X0227732Y0313529D01*
X0227680Y0313415D01*
X0227624Y0313303D01*
X0227565Y0313193D01*
X0227503Y0313085D01*
X0227437Y0312978D01*
X0227368Y0312874D01*
X0227295Y0312773D01*
X0227220Y0312673D01*
X0227141Y0312576D01*
X0227059Y0312482D01*
X0226974Y0312390D01*
X0226887Y0312301D01*
X0226796Y0312215D01*
X0226703Y0312132D01*
X0226607Y0312051D01*
X0226509Y0311974D01*
X0226409Y0311900D01*
X0226306Y0311829D01*
X0226201Y0311762D01*
X0226093Y0311697D01*
X0225984Y0311637D01*
X0225873Y0311579D01*
X0225760Y0311526D01*
X0225646Y0311476D01*
X0225530Y0311429D01*
X0225413Y0311387D01*
X0225294Y0311348D01*
X0225174Y0311312D01*
X0225053Y0311281D01*
X0224931Y0311253D01*
X0224809Y0311230D01*
X0224685Y0311210D01*
X0224561Y0311194D01*
X0224437Y0311182D01*
X0224312Y0311174D01*
X0224187Y0311170D01*
X0224063Y0311170D01*
X0223938Y0311174D01*
X0223813Y0311182D01*
X0223689Y0311194D01*
X0223565Y0311210D01*
X0223441Y0311230D01*
X0223319Y0311253D01*
X0223197Y0311281D01*
X0223076Y0311312D01*
X0222956Y0311348D01*
X0222837Y0311387D01*
X0222720Y0311429D01*
X0222604Y0311476D01*
X0222490Y0311526D01*
X0222377Y0311579D01*
X0222266Y0311637D01*
X0222156Y0311697D01*
X0222049Y0311762D01*
X0221944Y0311829D01*
X0221841Y0311900D01*
X0221741Y0311974D01*
X0221643Y0312051D01*
X0221547Y0312132D01*
X0221454Y0312215D01*
X0221363Y0312301D01*
X0221276Y0312390D01*
X0221191Y0312482D01*
X0221109Y0312576D01*
X0221030Y0312673D01*
X0220955Y0312773D01*
X0220882Y0312874D01*
X0220813Y0312978D01*
X0220747Y0313085D01*
X0220685Y0313193D01*
X0220626Y0313303D01*
X0220570Y0313415D01*
X0220518Y0313529D01*
X0220470Y0313644D01*
X0220425Y0313760D01*
X0220385Y0313879D01*
X0220347Y0313998D01*
X0220314Y0314118D01*
X0220285Y0314240D01*
X0220259Y0314362D01*
X0220237Y0314485D01*
X0220220Y0314609D01*
X0220206Y0314733D01*
X0220196Y0314857D01*
X0220190Y0314982D01*
X0220188Y0315107D01*
X0333140Y0234005D02*
X0333142Y0234130D01*
X0333148Y0234255D01*
X0333158Y0234379D01*
X0333172Y0234503D01*
X0333189Y0234627D01*
X0333211Y0234750D01*
X0333237Y0234872D01*
X0333266Y0234994D01*
X0333299Y0235114D01*
X0333337Y0235233D01*
X0333377Y0235352D01*
X0333422Y0235468D01*
X0333470Y0235583D01*
X0333522Y0235697D01*
X0333578Y0235809D01*
X0333637Y0235919D01*
X0333699Y0236027D01*
X0333765Y0236134D01*
X0333834Y0236238D01*
X0333907Y0236339D01*
X0333982Y0236439D01*
X0334061Y0236536D01*
X0334143Y0236630D01*
X0334228Y0236722D01*
X0334315Y0236811D01*
X0334406Y0236897D01*
X0334499Y0236980D01*
X0334595Y0237061D01*
X0334693Y0237138D01*
X0334793Y0237212D01*
X0334896Y0237283D01*
X0335001Y0237350D01*
X0335109Y0237415D01*
X0335218Y0237475D01*
X0335329Y0237533D01*
X0335442Y0237586D01*
X0335556Y0237636D01*
X0335672Y0237683D01*
X0335789Y0237725D01*
X0335908Y0237764D01*
X0336028Y0237800D01*
X0336149Y0237831D01*
X0336271Y0237859D01*
X0336393Y0237882D01*
X0336517Y0237902D01*
X0336641Y0237918D01*
X0336765Y0237930D01*
X0336890Y0237938D01*
X0337015Y0237942D01*
X0337139Y0237942D01*
X0337264Y0237938D01*
X0337389Y0237930D01*
X0337513Y0237918D01*
X0337637Y0237902D01*
X0337761Y0237882D01*
X0337883Y0237859D01*
X0338005Y0237831D01*
X0338126Y0237800D01*
X0338246Y0237764D01*
X0338365Y0237725D01*
X0338482Y0237683D01*
X0338598Y0237636D01*
X0338712Y0237586D01*
X0338825Y0237533D01*
X0338936Y0237475D01*
X0339046Y0237415D01*
X0339153Y0237350D01*
X0339258Y0237283D01*
X0339361Y0237212D01*
X0339461Y0237138D01*
X0339559Y0237061D01*
X0339655Y0236980D01*
X0339748Y0236897D01*
X0339839Y0236811D01*
X0339926Y0236722D01*
X0340011Y0236630D01*
X0340093Y0236536D01*
X0340172Y0236439D01*
X0340247Y0236339D01*
X0340320Y0236238D01*
X0340389Y0236134D01*
X0340455Y0236027D01*
X0340517Y0235919D01*
X0340576Y0235809D01*
X0340632Y0235697D01*
X0340684Y0235583D01*
X0340732Y0235468D01*
X0340777Y0235352D01*
X0340817Y0235233D01*
X0340855Y0235114D01*
X0340888Y0234994D01*
X0340917Y0234872D01*
X0340943Y0234750D01*
X0340965Y0234627D01*
X0340982Y0234503D01*
X0340996Y0234379D01*
X0341006Y0234255D01*
X0341012Y0234130D01*
X0341014Y0234005D01*
X0341012Y0233880D01*
X0341006Y0233755D01*
X0340996Y0233631D01*
X0340982Y0233507D01*
X0340965Y0233383D01*
X0340943Y0233260D01*
X0340917Y0233138D01*
X0340888Y0233016D01*
X0340855Y0232896D01*
X0340817Y0232777D01*
X0340777Y0232658D01*
X0340732Y0232542D01*
X0340684Y0232427D01*
X0340632Y0232313D01*
X0340576Y0232201D01*
X0340517Y0232091D01*
X0340455Y0231983D01*
X0340389Y0231876D01*
X0340320Y0231772D01*
X0340247Y0231671D01*
X0340172Y0231571D01*
X0340093Y0231474D01*
X0340011Y0231380D01*
X0339926Y0231288D01*
X0339839Y0231199D01*
X0339748Y0231113D01*
X0339655Y0231030D01*
X0339559Y0230949D01*
X0339461Y0230872D01*
X0339361Y0230798D01*
X0339258Y0230727D01*
X0339153Y0230660D01*
X0339045Y0230595D01*
X0338936Y0230535D01*
X0338825Y0230477D01*
X0338712Y0230424D01*
X0338598Y0230374D01*
X0338482Y0230327D01*
X0338365Y0230285D01*
X0338246Y0230246D01*
X0338126Y0230210D01*
X0338005Y0230179D01*
X0337883Y0230151D01*
X0337761Y0230128D01*
X0337637Y0230108D01*
X0337513Y0230092D01*
X0337389Y0230080D01*
X0337264Y0230072D01*
X0337139Y0230068D01*
X0337015Y0230068D01*
X0336890Y0230072D01*
X0336765Y0230080D01*
X0336641Y0230092D01*
X0336517Y0230108D01*
X0336393Y0230128D01*
X0336271Y0230151D01*
X0336149Y0230179D01*
X0336028Y0230210D01*
X0335908Y0230246D01*
X0335789Y0230285D01*
X0335672Y0230327D01*
X0335556Y0230374D01*
X0335442Y0230424D01*
X0335329Y0230477D01*
X0335218Y0230535D01*
X0335108Y0230595D01*
X0335001Y0230660D01*
X0334896Y0230727D01*
X0334793Y0230798D01*
X0334693Y0230872D01*
X0334595Y0230949D01*
X0334499Y0231030D01*
X0334406Y0231113D01*
X0334315Y0231199D01*
X0334228Y0231288D01*
X0334143Y0231380D01*
X0334061Y0231474D01*
X0333982Y0231571D01*
X0333907Y0231671D01*
X0333834Y0231772D01*
X0333765Y0231876D01*
X0333699Y0231983D01*
X0333637Y0232091D01*
X0333578Y0232201D01*
X0333522Y0232313D01*
X0333470Y0232427D01*
X0333422Y0232542D01*
X0333377Y0232658D01*
X0333337Y0232777D01*
X0333299Y0232896D01*
X0333266Y0233016D01*
X0333237Y0233138D01*
X0333211Y0233260D01*
X0333189Y0233383D01*
X0333172Y0233507D01*
X0333158Y0233631D01*
X0333148Y0233755D01*
X0333142Y0233880D01*
X0333140Y0234005D01*
X0417538Y0233657D02*
X0417540Y0233810D01*
X0417546Y0233964D01*
X0417556Y0234117D01*
X0417570Y0234269D01*
X0417588Y0234422D01*
X0417610Y0234573D01*
X0417635Y0234724D01*
X0417665Y0234875D01*
X0417699Y0235025D01*
X0417736Y0235173D01*
X0417777Y0235321D01*
X0417822Y0235467D01*
X0417871Y0235613D01*
X0417924Y0235757D01*
X0417980Y0235899D01*
X0418040Y0236040D01*
X0418104Y0236180D01*
X0418171Y0236318D01*
X0418242Y0236454D01*
X0418317Y0236588D01*
X0418394Y0236720D01*
X0418476Y0236850D01*
X0418560Y0236978D01*
X0418648Y0237104D01*
X0418739Y0237227D01*
X0418833Y0237348D01*
X0418931Y0237466D01*
X0419031Y0237582D01*
X0419135Y0237695D01*
X0419241Y0237806D01*
X0419350Y0237914D01*
X0419462Y0238019D01*
X0419576Y0238120D01*
X0419694Y0238219D01*
X0419813Y0238315D01*
X0419935Y0238408D01*
X0420060Y0238497D01*
X0420187Y0238584D01*
X0420316Y0238666D01*
X0420447Y0238746D01*
X0420580Y0238822D01*
X0420715Y0238895D01*
X0420852Y0238964D01*
X0420991Y0239029D01*
X0421131Y0239091D01*
X0421273Y0239149D01*
X0421416Y0239204D01*
X0421561Y0239255D01*
X0421707Y0239302D01*
X0421854Y0239345D01*
X0422002Y0239384D01*
X0422151Y0239420D01*
X0422301Y0239451D01*
X0422452Y0239479D01*
X0422603Y0239503D01*
X0422756Y0239523D01*
X0422908Y0239539D01*
X0423061Y0239551D01*
X0423214Y0239559D01*
X0423367Y0239563D01*
X0423521Y0239563D01*
X0423674Y0239559D01*
X0423827Y0239551D01*
X0423980Y0239539D01*
X0424132Y0239523D01*
X0424285Y0239503D01*
X0424436Y0239479D01*
X0424587Y0239451D01*
X0424737Y0239420D01*
X0424886Y0239384D01*
X0425034Y0239345D01*
X0425181Y0239302D01*
X0425327Y0239255D01*
X0425472Y0239204D01*
X0425615Y0239149D01*
X0425757Y0239091D01*
X0425897Y0239029D01*
X0426036Y0238964D01*
X0426173Y0238895D01*
X0426308Y0238822D01*
X0426441Y0238746D01*
X0426572Y0238666D01*
X0426701Y0238584D01*
X0426828Y0238497D01*
X0426953Y0238408D01*
X0427075Y0238315D01*
X0427194Y0238219D01*
X0427312Y0238120D01*
X0427426Y0238019D01*
X0427538Y0237914D01*
X0427647Y0237806D01*
X0427753Y0237695D01*
X0427857Y0237582D01*
X0427957Y0237466D01*
X0428055Y0237348D01*
X0428149Y0237227D01*
X0428240Y0237104D01*
X0428328Y0236978D01*
X0428412Y0236850D01*
X0428494Y0236720D01*
X0428571Y0236588D01*
X0428646Y0236454D01*
X0428717Y0236318D01*
X0428784Y0236180D01*
X0428848Y0236040D01*
X0428908Y0235899D01*
X0428964Y0235757D01*
X0429017Y0235613D01*
X0429066Y0235467D01*
X0429111Y0235321D01*
X0429152Y0235173D01*
X0429189Y0235025D01*
X0429223Y0234875D01*
X0429253Y0234724D01*
X0429278Y0234573D01*
X0429300Y0234422D01*
X0429318Y0234269D01*
X0429332Y0234117D01*
X0429342Y0233964D01*
X0429348Y0233810D01*
X0429350Y0233657D01*
X0429348Y0233504D01*
X0429342Y0233350D01*
X0429332Y0233197D01*
X0429318Y0233045D01*
X0429300Y0232892D01*
X0429278Y0232741D01*
X0429253Y0232590D01*
X0429223Y0232439D01*
X0429189Y0232289D01*
X0429152Y0232141D01*
X0429111Y0231993D01*
X0429066Y0231847D01*
X0429017Y0231701D01*
X0428964Y0231557D01*
X0428908Y0231415D01*
X0428848Y0231274D01*
X0428784Y0231134D01*
X0428717Y0230996D01*
X0428646Y0230860D01*
X0428571Y0230726D01*
X0428494Y0230594D01*
X0428412Y0230464D01*
X0428328Y0230336D01*
X0428240Y0230210D01*
X0428149Y0230087D01*
X0428055Y0229966D01*
X0427957Y0229848D01*
X0427857Y0229732D01*
X0427753Y0229619D01*
X0427647Y0229508D01*
X0427538Y0229400D01*
X0427426Y0229295D01*
X0427312Y0229194D01*
X0427194Y0229095D01*
X0427075Y0228999D01*
X0426953Y0228906D01*
X0426828Y0228817D01*
X0426701Y0228730D01*
X0426572Y0228648D01*
X0426441Y0228568D01*
X0426308Y0228492D01*
X0426173Y0228419D01*
X0426036Y0228350D01*
X0425897Y0228285D01*
X0425757Y0228223D01*
X0425615Y0228165D01*
X0425472Y0228110D01*
X0425327Y0228059D01*
X0425181Y0228012D01*
X0425034Y0227969D01*
X0424886Y0227930D01*
X0424737Y0227894D01*
X0424587Y0227863D01*
X0424436Y0227835D01*
X0424285Y0227811D01*
X0424132Y0227791D01*
X0423980Y0227775D01*
X0423827Y0227763D01*
X0423674Y0227755D01*
X0423521Y0227751D01*
X0423367Y0227751D01*
X0423214Y0227755D01*
X0423061Y0227763D01*
X0422908Y0227775D01*
X0422756Y0227791D01*
X0422603Y0227811D01*
X0422452Y0227835D01*
X0422301Y0227863D01*
X0422151Y0227894D01*
X0422002Y0227930D01*
X0421854Y0227969D01*
X0421707Y0228012D01*
X0421561Y0228059D01*
X0421416Y0228110D01*
X0421273Y0228165D01*
X0421131Y0228223D01*
X0420991Y0228285D01*
X0420852Y0228350D01*
X0420715Y0228419D01*
X0420580Y0228492D01*
X0420447Y0228568D01*
X0420316Y0228648D01*
X0420187Y0228730D01*
X0420060Y0228817D01*
X0419935Y0228906D01*
X0419813Y0228999D01*
X0419694Y0229095D01*
X0419576Y0229194D01*
X0419462Y0229295D01*
X0419350Y0229400D01*
X0419241Y0229508D01*
X0419135Y0229619D01*
X0419031Y0229732D01*
X0418931Y0229848D01*
X0418833Y0229966D01*
X0418739Y0230087D01*
X0418648Y0230210D01*
X0418560Y0230336D01*
X0418476Y0230464D01*
X0418394Y0230594D01*
X0418317Y0230726D01*
X0418242Y0230860D01*
X0418171Y0230996D01*
X0418104Y0231134D01*
X0418040Y0231274D01*
X0417980Y0231415D01*
X0417924Y0231557D01*
X0417871Y0231701D01*
X0417822Y0231847D01*
X0417777Y0231993D01*
X0417736Y0232141D01*
X0417699Y0232289D01*
X0417665Y0232439D01*
X0417635Y0232590D01*
X0417610Y0232741D01*
X0417588Y0232892D01*
X0417570Y0233045D01*
X0417556Y0233197D01*
X0417546Y0233350D01*
X0417540Y0233504D01*
X0417538Y0233657D01*
X0417538Y0095862D02*
X0417540Y0096015D01*
X0417546Y0096169D01*
X0417556Y0096322D01*
X0417570Y0096474D01*
X0417588Y0096627D01*
X0417610Y0096778D01*
X0417635Y0096929D01*
X0417665Y0097080D01*
X0417699Y0097230D01*
X0417736Y0097378D01*
X0417777Y0097526D01*
X0417822Y0097672D01*
X0417871Y0097818D01*
X0417924Y0097962D01*
X0417980Y0098104D01*
X0418040Y0098245D01*
X0418104Y0098385D01*
X0418171Y0098523D01*
X0418242Y0098659D01*
X0418317Y0098793D01*
X0418394Y0098925D01*
X0418476Y0099055D01*
X0418560Y0099183D01*
X0418648Y0099309D01*
X0418739Y0099432D01*
X0418833Y0099553D01*
X0418931Y0099671D01*
X0419031Y0099787D01*
X0419135Y0099900D01*
X0419241Y0100011D01*
X0419350Y0100119D01*
X0419462Y0100224D01*
X0419576Y0100325D01*
X0419694Y0100424D01*
X0419813Y0100520D01*
X0419935Y0100613D01*
X0420060Y0100702D01*
X0420187Y0100789D01*
X0420316Y0100871D01*
X0420447Y0100951D01*
X0420580Y0101027D01*
X0420715Y0101100D01*
X0420852Y0101169D01*
X0420991Y0101234D01*
X0421131Y0101296D01*
X0421273Y0101354D01*
X0421416Y0101409D01*
X0421561Y0101460D01*
X0421707Y0101507D01*
X0421854Y0101550D01*
X0422002Y0101589D01*
X0422151Y0101625D01*
X0422301Y0101656D01*
X0422452Y0101684D01*
X0422603Y0101708D01*
X0422756Y0101728D01*
X0422908Y0101744D01*
X0423061Y0101756D01*
X0423214Y0101764D01*
X0423367Y0101768D01*
X0423521Y0101768D01*
X0423674Y0101764D01*
X0423827Y0101756D01*
X0423980Y0101744D01*
X0424132Y0101728D01*
X0424285Y0101708D01*
X0424436Y0101684D01*
X0424587Y0101656D01*
X0424737Y0101625D01*
X0424886Y0101589D01*
X0425034Y0101550D01*
X0425181Y0101507D01*
X0425327Y0101460D01*
X0425472Y0101409D01*
X0425615Y0101354D01*
X0425757Y0101296D01*
X0425897Y0101234D01*
X0426036Y0101169D01*
X0426173Y0101100D01*
X0426308Y0101027D01*
X0426441Y0100951D01*
X0426572Y0100871D01*
X0426701Y0100789D01*
X0426828Y0100702D01*
X0426953Y0100613D01*
X0427075Y0100520D01*
X0427194Y0100424D01*
X0427312Y0100325D01*
X0427426Y0100224D01*
X0427538Y0100119D01*
X0427647Y0100011D01*
X0427753Y0099900D01*
X0427857Y0099787D01*
X0427957Y0099671D01*
X0428055Y0099553D01*
X0428149Y0099432D01*
X0428240Y0099309D01*
X0428328Y0099183D01*
X0428412Y0099055D01*
X0428494Y0098925D01*
X0428571Y0098793D01*
X0428646Y0098659D01*
X0428717Y0098523D01*
X0428784Y0098385D01*
X0428848Y0098245D01*
X0428908Y0098104D01*
X0428964Y0097962D01*
X0429017Y0097818D01*
X0429066Y0097672D01*
X0429111Y0097526D01*
X0429152Y0097378D01*
X0429189Y0097230D01*
X0429223Y0097080D01*
X0429253Y0096929D01*
X0429278Y0096778D01*
X0429300Y0096627D01*
X0429318Y0096474D01*
X0429332Y0096322D01*
X0429342Y0096169D01*
X0429348Y0096015D01*
X0429350Y0095862D01*
X0429348Y0095709D01*
X0429342Y0095555D01*
X0429332Y0095402D01*
X0429318Y0095250D01*
X0429300Y0095097D01*
X0429278Y0094946D01*
X0429253Y0094795D01*
X0429223Y0094644D01*
X0429189Y0094494D01*
X0429152Y0094346D01*
X0429111Y0094198D01*
X0429066Y0094052D01*
X0429017Y0093906D01*
X0428964Y0093762D01*
X0428908Y0093620D01*
X0428848Y0093479D01*
X0428784Y0093339D01*
X0428717Y0093201D01*
X0428646Y0093065D01*
X0428571Y0092931D01*
X0428494Y0092799D01*
X0428412Y0092669D01*
X0428328Y0092541D01*
X0428240Y0092415D01*
X0428149Y0092292D01*
X0428055Y0092171D01*
X0427957Y0092053D01*
X0427857Y0091937D01*
X0427753Y0091824D01*
X0427647Y0091713D01*
X0427538Y0091605D01*
X0427426Y0091500D01*
X0427312Y0091399D01*
X0427194Y0091300D01*
X0427075Y0091204D01*
X0426953Y0091111D01*
X0426828Y0091022D01*
X0426701Y0090935D01*
X0426572Y0090853D01*
X0426441Y0090773D01*
X0426308Y0090697D01*
X0426173Y0090624D01*
X0426036Y0090555D01*
X0425897Y0090490D01*
X0425757Y0090428D01*
X0425615Y0090370D01*
X0425472Y0090315D01*
X0425327Y0090264D01*
X0425181Y0090217D01*
X0425034Y0090174D01*
X0424886Y0090135D01*
X0424737Y0090099D01*
X0424587Y0090068D01*
X0424436Y0090040D01*
X0424285Y0090016D01*
X0424132Y0089996D01*
X0423980Y0089980D01*
X0423827Y0089968D01*
X0423674Y0089960D01*
X0423521Y0089956D01*
X0423367Y0089956D01*
X0423214Y0089960D01*
X0423061Y0089968D01*
X0422908Y0089980D01*
X0422756Y0089996D01*
X0422603Y0090016D01*
X0422452Y0090040D01*
X0422301Y0090068D01*
X0422151Y0090099D01*
X0422002Y0090135D01*
X0421854Y0090174D01*
X0421707Y0090217D01*
X0421561Y0090264D01*
X0421416Y0090315D01*
X0421273Y0090370D01*
X0421131Y0090428D01*
X0420991Y0090490D01*
X0420852Y0090555D01*
X0420715Y0090624D01*
X0420580Y0090697D01*
X0420447Y0090773D01*
X0420316Y0090853D01*
X0420187Y0090935D01*
X0420060Y0091022D01*
X0419935Y0091111D01*
X0419813Y0091204D01*
X0419694Y0091300D01*
X0419576Y0091399D01*
X0419462Y0091500D01*
X0419350Y0091605D01*
X0419241Y0091713D01*
X0419135Y0091824D01*
X0419031Y0091937D01*
X0418931Y0092053D01*
X0418833Y0092171D01*
X0418739Y0092292D01*
X0418648Y0092415D01*
X0418560Y0092541D01*
X0418476Y0092669D01*
X0418394Y0092799D01*
X0418317Y0092931D01*
X0418242Y0093065D01*
X0418171Y0093201D01*
X0418104Y0093339D01*
X0418040Y0093479D01*
X0417980Y0093620D01*
X0417924Y0093762D01*
X0417871Y0093906D01*
X0417822Y0094052D01*
X0417777Y0094198D01*
X0417736Y0094346D01*
X0417699Y0094494D01*
X0417665Y0094644D01*
X0417635Y0094795D01*
X0417610Y0094946D01*
X0417588Y0095097D01*
X0417570Y0095250D01*
X0417556Y0095402D01*
X0417546Y0095555D01*
X0417540Y0095709D01*
X0417538Y0095862D01*
D11*
X0336390Y0136050D02*
X0335623Y0135283D01*
X0334088Y0135283D01*
X0333321Y0136050D01*
X0331786Y0135283D02*
X0328717Y0135283D01*
X0330252Y0135283D02*
X0330252Y0139887D01*
X0331786Y0138352D01*
X0333321Y0139120D02*
X0334088Y0139887D01*
X0335623Y0139887D01*
X0336390Y0139120D01*
X0336390Y0136050D01*
X0327182Y0136050D02*
X0326415Y0135283D01*
X0324880Y0135283D01*
X0324113Y0136050D01*
X0324113Y0137585D01*
X0324880Y0138352D01*
X0325648Y0138352D01*
X0327182Y0137585D01*
X0327182Y0139887D01*
X0324113Y0139887D01*
X0330897Y0155386D02*
X0330297Y0155987D01*
X0330297Y0157188D01*
X0330897Y0157788D01*
X0333900Y0157788D01*
X0333900Y0159069D02*
X0332098Y0159069D01*
X0332699Y0160270D01*
X0332699Y0160871D01*
X0332098Y0161471D01*
X0330897Y0161471D01*
X0330297Y0160871D01*
X0330297Y0159670D01*
X0330897Y0159069D01*
X0333900Y0159069D02*
X0333900Y0161471D01*
X0333900Y0155386D02*
X0330897Y0155386D01*
X0302032Y0138281D02*
X0299730Y0135979D01*
X0299730Y0139048D01*
X0297428Y0138281D02*
X0302032Y0138281D01*
X0302032Y0132910D02*
X0297428Y0132910D01*
X0297428Y0134444D02*
X0297428Y0131375D01*
X0298196Y0129841D02*
X0297428Y0129073D01*
X0297428Y0127539D01*
X0298196Y0126771D01*
X0301265Y0126771D01*
X0302032Y0127539D01*
X0302032Y0129073D01*
X0301265Y0129841D01*
X0300498Y0131375D02*
X0302032Y0132910D01*
X0225993Y0191023D02*
X0225993Y0195627D01*
X0223691Y0195627D01*
X0222924Y0194859D01*
X0222924Y0193325D01*
X0223691Y0192557D01*
X0225993Y0192557D01*
X0224458Y0192557D02*
X0222924Y0191023D01*
X0221389Y0193325D02*
X0218320Y0193325D01*
X0216785Y0191790D02*
X0216785Y0194859D01*
X0216018Y0195627D01*
X0214483Y0195627D01*
X0213716Y0194859D01*
X0216785Y0191790D01*
X0216018Y0191023D01*
X0214483Y0191023D01*
X0213716Y0191790D01*
X0213716Y0194859D01*
X0219087Y0195627D02*
X0219087Y0191023D01*
X0221389Y0193325D02*
X0219087Y0195627D01*
X0219291Y0203108D02*
X0220826Y0203108D01*
X0221593Y0203876D01*
X0223128Y0203108D02*
X0224662Y0204643D01*
X0223895Y0204643D02*
X0226197Y0204643D01*
X0226197Y0203108D02*
X0226197Y0207712D01*
X0223895Y0207712D01*
X0223128Y0206945D01*
X0223128Y0205410D01*
X0223895Y0204643D01*
X0221593Y0206945D02*
X0220826Y0207712D01*
X0219291Y0207712D01*
X0218524Y0206945D01*
X0218524Y0206178D01*
X0219291Y0205410D01*
X0218524Y0204643D01*
X0218524Y0203876D01*
X0219291Y0203108D01*
X0219291Y0205410D02*
X0220058Y0205410D01*
X0216989Y0205410D02*
X0215454Y0206178D01*
X0214687Y0206178D01*
X0213920Y0205410D01*
X0213920Y0203876D01*
X0214687Y0203108D01*
X0216222Y0203108D01*
X0216989Y0203876D01*
X0216989Y0205410D02*
X0216989Y0207712D01*
X0213920Y0207712D01*
X0189020Y0213133D02*
X0188252Y0212365D01*
X0185183Y0212365D01*
X0184416Y0213133D01*
X0184416Y0214667D01*
X0185183Y0215435D01*
X0184416Y0216969D02*
X0184416Y0220039D01*
X0186718Y0221573D02*
X0186718Y0224642D01*
X0189020Y0223875D02*
X0186718Y0221573D01*
X0187485Y0220039D02*
X0188252Y0220039D01*
X0189020Y0219271D01*
X0189020Y0217737D01*
X0188252Y0216969D01*
X0188252Y0215435D02*
X0189020Y0214667D01*
X0189020Y0213133D01*
X0184416Y0216969D02*
X0187485Y0220039D01*
X0189020Y0223875D02*
X0184416Y0223875D01*
X0161417Y0216969D02*
X0161417Y0215434D01*
X0160650Y0214667D01*
X0159883Y0214667D01*
X0159115Y0215434D01*
X0159115Y0217736D01*
X0157581Y0217736D02*
X0160650Y0217736D01*
X0161417Y0216969D01*
X0157581Y0217736D02*
X0156814Y0216969D01*
X0156814Y0215434D01*
X0157581Y0214667D01*
X0157581Y0213132D02*
X0156814Y0212365D01*
X0156814Y0210830D01*
X0157581Y0210063D01*
X0156814Y0208528D02*
X0158348Y0206994D01*
X0158348Y0207761D02*
X0158348Y0205459D01*
X0156814Y0205459D02*
X0161417Y0205459D01*
X0161417Y0207761D01*
X0160650Y0208528D01*
X0159115Y0208528D01*
X0158348Y0207761D01*
X0160650Y0210063D02*
X0161417Y0210830D01*
X0161417Y0212365D01*
X0160650Y0213132D01*
X0159883Y0213132D01*
X0159115Y0212365D01*
X0158348Y0213132D01*
X0157581Y0213132D01*
X0159115Y0212365D02*
X0159115Y0211598D01*
X0147882Y0232021D02*
X0143278Y0232021D01*
X0144813Y0232021D02*
X0144813Y0234323D01*
X0145580Y0235091D01*
X0147115Y0235091D01*
X0147882Y0234323D01*
X0147882Y0232021D01*
X0144813Y0233556D02*
X0143278Y0235091D01*
X0143278Y0236625D02*
X0146348Y0239694D01*
X0147115Y0239694D01*
X0147882Y0238927D01*
X0147882Y0237393D01*
X0147115Y0236625D01*
X0143278Y0236625D02*
X0143278Y0239694D01*
X0144046Y0241229D02*
X0143278Y0241996D01*
X0143278Y0243531D01*
X0144046Y0244298D01*
X0147115Y0244298D01*
X0147882Y0243531D01*
X0147882Y0241996D01*
X0147115Y0241229D01*
X0146348Y0241229D01*
X0145580Y0241996D01*
X0145580Y0244298D01*
X0147746Y0258683D02*
X0146978Y0259450D01*
X0146978Y0260985D01*
X0147746Y0261752D01*
X0146978Y0263287D02*
X0150048Y0266356D01*
X0150815Y0266356D01*
X0151582Y0265589D01*
X0151582Y0264054D01*
X0150815Y0263287D01*
X0150815Y0261752D02*
X0151582Y0260985D01*
X0151582Y0259450D01*
X0150815Y0258683D01*
X0147746Y0258683D01*
X0146978Y0263287D02*
X0146978Y0266356D01*
X0147746Y0267891D02*
X0146978Y0268658D01*
X0146978Y0270193D01*
X0147746Y0270960D01*
X0150815Y0270960D01*
X0151582Y0270193D01*
X0151582Y0268658D01*
X0150815Y0267891D01*
X0150048Y0267891D01*
X0149280Y0268658D01*
X0149280Y0270960D01*
X0165428Y0267893D02*
X0165428Y0266358D01*
X0166196Y0265591D01*
X0169265Y0268660D01*
X0166196Y0268660D01*
X0165428Y0267893D01*
X0166196Y0265591D02*
X0169265Y0265591D01*
X0170032Y0266358D01*
X0170032Y0267893D01*
X0169265Y0268660D01*
X0169265Y0264056D02*
X0170032Y0263289D01*
X0170032Y0261754D01*
X0169265Y0260987D01*
X0169265Y0259452D02*
X0170032Y0258685D01*
X0170032Y0257150D01*
X0169265Y0256383D01*
X0166196Y0256383D01*
X0165428Y0257150D01*
X0165428Y0258685D01*
X0166196Y0259452D01*
X0165428Y0260987D02*
X0168498Y0264056D01*
X0169265Y0264056D01*
X0165428Y0264056D02*
X0165428Y0260987D01*
X0178230Y0256937D02*
X0178230Y0252333D01*
X0177463Y0254635D02*
X0180532Y0254635D01*
X0178230Y0256937D01*
X0182067Y0256170D02*
X0182067Y0255402D01*
X0182834Y0254635D01*
X0182067Y0253868D01*
X0182067Y0253100D01*
X0182834Y0252333D01*
X0184369Y0252333D01*
X0185136Y0253100D01*
X0186671Y0253100D02*
X0187438Y0252333D01*
X0188973Y0252333D01*
X0189740Y0253100D01*
X0189740Y0256170D01*
X0188973Y0256937D01*
X0187438Y0256937D01*
X0186671Y0256170D01*
X0185136Y0256170D02*
X0184369Y0256937D01*
X0182834Y0256937D01*
X0182067Y0256170D01*
X0182834Y0254635D02*
X0183602Y0254635D01*
X0188201Y0268433D02*
X0191271Y0268433D01*
X0188201Y0271502D01*
X0188201Y0272270D01*
X0188969Y0273037D01*
X0190503Y0273037D01*
X0191271Y0272270D01*
X0192805Y0272270D02*
X0192805Y0271502D01*
X0193573Y0270735D01*
X0192805Y0269968D01*
X0192805Y0269200D01*
X0193573Y0268433D01*
X0195107Y0268433D01*
X0195875Y0269200D01*
X0197409Y0269200D02*
X0198177Y0268433D01*
X0199711Y0268433D01*
X0200478Y0269200D01*
X0200478Y0272270D01*
X0199711Y0273037D01*
X0198177Y0273037D01*
X0197409Y0272270D01*
X0195875Y0272270D02*
X0195107Y0273037D01*
X0193573Y0273037D01*
X0192805Y0272270D01*
X0193573Y0270735D02*
X0194340Y0270735D01*
X0207980Y0294833D02*
X0209515Y0294833D01*
X0210282Y0295600D01*
X0211817Y0295600D02*
X0212584Y0294833D01*
X0214119Y0294833D01*
X0214886Y0295600D01*
X0216421Y0295600D02*
X0217188Y0294833D01*
X0218723Y0294833D01*
X0219490Y0295600D01*
X0219490Y0298670D01*
X0218723Y0299437D01*
X0217188Y0299437D01*
X0216421Y0298670D01*
X0214886Y0298670D02*
X0214119Y0299437D01*
X0212584Y0299437D01*
X0211817Y0298670D01*
X0211817Y0297902D01*
X0212584Y0297135D01*
X0211817Y0296368D01*
X0211817Y0295600D01*
X0212584Y0297135D02*
X0213352Y0297135D01*
X0210282Y0298670D02*
X0209515Y0299437D01*
X0207980Y0299437D01*
X0207213Y0298670D01*
X0207213Y0297902D01*
X0207980Y0297135D01*
X0207213Y0296368D01*
X0207213Y0295600D01*
X0207980Y0294833D01*
X0207980Y0297135D02*
X0208748Y0297135D01*
X0215101Y0301550D02*
X0215869Y0300783D01*
X0217403Y0300783D01*
X0218171Y0301550D01*
X0218171Y0302318D01*
X0217403Y0303085D01*
X0215869Y0303085D01*
X0215101Y0302318D01*
X0215101Y0301550D01*
X0215869Y0303085D02*
X0215101Y0303852D01*
X0215101Y0304620D01*
X0215869Y0305387D01*
X0217403Y0305387D01*
X0218171Y0304620D01*
X0218171Y0303852D01*
X0217403Y0303085D01*
X0219705Y0300783D02*
X0222775Y0300783D01*
X0221240Y0300783D02*
X0221240Y0305387D01*
X0222775Y0303852D01*
X0224309Y0304620D02*
X0225077Y0305387D01*
X0226611Y0305387D01*
X0227378Y0304620D01*
X0227378Y0301550D01*
X0226611Y0300783D01*
X0225077Y0300783D01*
X0224309Y0301550D01*
X0225640Y0298396D02*
X0225640Y0293792D01*
X0227175Y0293792D02*
X0224105Y0293792D01*
X0227175Y0296861D02*
X0225640Y0298396D01*
X0230244Y0298396D02*
X0230244Y0293792D01*
X0231778Y0293792D02*
X0228709Y0293792D01*
X0231778Y0296861D02*
X0230244Y0298396D01*
X0233313Y0298396D02*
X0233313Y0294559D01*
X0234080Y0293792D01*
X0235615Y0293792D01*
X0236382Y0294559D01*
X0236382Y0298396D01*
X0287643Y0293445D02*
X0287643Y0292844D01*
X0288244Y0292244D01*
X0289445Y0292244D01*
X0290045Y0292844D01*
X0290045Y0293445D01*
X0289445Y0294045D01*
X0288244Y0294045D01*
X0287643Y0293445D01*
X0288244Y0292244D02*
X0287643Y0291643D01*
X0287643Y0291043D01*
X0288244Y0290442D01*
X0289445Y0290442D01*
X0290045Y0291043D01*
X0290045Y0291643D01*
X0289445Y0292244D01*
X0291326Y0291043D02*
X0291326Y0294045D01*
X0293728Y0294045D02*
X0293728Y0291043D01*
X0293128Y0290442D01*
X0291927Y0290442D01*
X0291326Y0291043D01*
X0297021Y0325023D02*
X0297021Y0325790D01*
X0293951Y0328860D01*
X0293951Y0329627D01*
X0297021Y0329627D01*
X0298555Y0328860D02*
X0298555Y0328092D01*
X0299323Y0327325D01*
X0298555Y0326558D01*
X0298555Y0325790D01*
X0299323Y0325023D01*
X0300857Y0325023D01*
X0301625Y0325790D01*
X0303159Y0325023D02*
X0304694Y0326558D01*
X0303927Y0326558D02*
X0306228Y0326558D01*
X0306228Y0325023D02*
X0306228Y0329627D01*
X0303927Y0329627D01*
X0303159Y0328860D01*
X0303159Y0327325D01*
X0303927Y0326558D01*
X0301625Y0328860D02*
X0300857Y0329627D01*
X0299323Y0329627D01*
X0298555Y0328860D01*
X0299323Y0327325D02*
X0300090Y0327325D01*
X0346638Y0299268D02*
X0346638Y0298067D01*
X0347238Y0297466D01*
X0347238Y0296185D02*
X0350241Y0296185D01*
X0349640Y0297466D02*
X0349040Y0297466D01*
X0348439Y0298067D01*
X0348439Y0299868D01*
X0347238Y0299868D02*
X0349640Y0299868D01*
X0350241Y0299268D01*
X0350241Y0298067D01*
X0349640Y0297466D01*
X0347238Y0296185D02*
X0346638Y0295585D01*
X0346638Y0294384D01*
X0347238Y0293783D01*
X0350241Y0293783D01*
X0346638Y0299268D02*
X0347238Y0299868D01*
X0357178Y0251248D02*
X0357178Y0248179D01*
X0357178Y0246644D02*
X0357178Y0243575D01*
X0357178Y0245110D02*
X0361782Y0245110D01*
X0360248Y0243575D01*
X0361015Y0242041D02*
X0361782Y0241273D01*
X0361782Y0239739D01*
X0361015Y0238971D01*
X0357946Y0238971D01*
X0357178Y0239739D01*
X0357178Y0241273D01*
X0357946Y0242041D01*
X0360248Y0248179D02*
X0361782Y0249714D01*
X0357178Y0249714D01*
X0364978Y0237648D02*
X0364978Y0234579D01*
X0368048Y0237648D01*
X0368815Y0237648D01*
X0369582Y0236881D01*
X0369582Y0235346D01*
X0368815Y0234579D01*
X0369582Y0231510D02*
X0364978Y0231510D01*
X0364978Y0233044D02*
X0364978Y0229975D01*
X0365746Y0228441D02*
X0364978Y0227673D01*
X0364978Y0226139D01*
X0365746Y0225371D01*
X0368815Y0225371D01*
X0369582Y0226139D01*
X0369582Y0227673D01*
X0368815Y0228441D01*
X0368048Y0229975D02*
X0369582Y0231510D01*
X0175928Y0083087D02*
X0175928Y0078483D01*
X0175928Y0080018D02*
X0173627Y0080018D01*
X0172859Y0080785D01*
X0172859Y0082320D01*
X0173627Y0083087D01*
X0175928Y0083087D01*
X0174394Y0080018D02*
X0172859Y0078483D01*
X0171325Y0079250D02*
X0170557Y0078483D01*
X0169023Y0078483D01*
X0168255Y0079250D01*
X0168255Y0080785D01*
X0169023Y0081552D01*
X0169790Y0081552D01*
X0171325Y0080785D01*
X0171325Y0083087D01*
X0168255Y0083087D01*
X0156892Y0143411D02*
X0152288Y0143411D01*
X0153823Y0143411D02*
X0153823Y0145713D01*
X0154590Y0146481D01*
X0156125Y0146481D01*
X0156892Y0145713D01*
X0156892Y0143411D01*
X0153823Y0144946D02*
X0152288Y0146481D01*
X0153056Y0148015D02*
X0152288Y0148783D01*
X0152288Y0150317D01*
X0153056Y0151084D01*
X0153823Y0151084D01*
X0154590Y0150317D01*
X0154590Y0149550D01*
X0154590Y0150317D02*
X0155358Y0151084D01*
X0156125Y0151084D01*
X0156892Y0150317D01*
X0156892Y0148783D01*
X0156125Y0148015D01*
X0154590Y0152619D02*
X0154590Y0154921D01*
X0153823Y0155688D01*
X0153056Y0155688D01*
X0152288Y0154921D01*
X0152288Y0153386D01*
X0153056Y0152619D01*
X0154590Y0152619D01*
X0156125Y0154154D01*
X0156892Y0155688D01*
X0156862Y0168641D02*
X0152258Y0168641D01*
X0153793Y0168641D02*
X0153793Y0170943D01*
X0154560Y0171711D01*
X0156095Y0171711D01*
X0156862Y0170943D01*
X0156862Y0168641D01*
X0153793Y0170176D02*
X0152258Y0171711D01*
X0153026Y0173245D02*
X0152258Y0174013D01*
X0152258Y0175547D01*
X0153026Y0176314D01*
X0153793Y0176314D01*
X0154560Y0175547D01*
X0154560Y0174780D01*
X0154560Y0175547D02*
X0155328Y0176314D01*
X0156095Y0176314D01*
X0156862Y0175547D01*
X0156862Y0174013D01*
X0156095Y0173245D01*
X0156095Y0177849D02*
X0156862Y0178616D01*
X0156862Y0180151D01*
X0156095Y0180918D01*
X0153026Y0177849D01*
X0152258Y0178616D01*
X0152258Y0180151D01*
X0153026Y0180918D01*
X0156095Y0180918D01*
X0156095Y0177849D02*
X0153026Y0177849D01*
X0131404Y0221358D02*
X0131404Y0225962D01*
X0129102Y0225962D01*
X0128335Y0225195D01*
X0128335Y0223660D01*
X0129102Y0222893D01*
X0131404Y0222893D01*
X0129870Y0222893D02*
X0128335Y0221358D01*
X0126801Y0221358D02*
X0123731Y0224428D01*
X0123731Y0225195D01*
X0124499Y0225962D01*
X0126033Y0225962D01*
X0126801Y0225195D01*
X0126801Y0221358D02*
X0123731Y0221358D01*
X0122197Y0222126D02*
X0122197Y0222893D01*
X0121429Y0223660D01*
X0119895Y0223660D01*
X0119127Y0222893D01*
X0119127Y0222126D01*
X0119895Y0221358D01*
X0121429Y0221358D01*
X0122197Y0222126D01*
X0121429Y0223660D02*
X0122197Y0224428D01*
X0122197Y0225195D01*
X0121429Y0225962D01*
X0119895Y0225962D01*
X0119127Y0225195D01*
X0119127Y0224428D01*
X0119895Y0223660D01*
X0119038Y0233691D02*
X0119038Y0238294D01*
X0116736Y0238294D01*
X0115969Y0237527D01*
X0115969Y0235993D01*
X0116736Y0235225D01*
X0119038Y0235225D01*
X0117503Y0235225D02*
X0115969Y0233691D01*
X0114434Y0233691D02*
X0111365Y0236760D01*
X0111365Y0237527D01*
X0112132Y0238294D01*
X0113667Y0238294D01*
X0114434Y0237527D01*
X0114434Y0233691D02*
X0111365Y0233691D01*
X0109830Y0233691D02*
X0109830Y0234458D01*
X0106761Y0237527D01*
X0106761Y0238294D01*
X0109830Y0238294D01*
X0115475Y0244074D02*
X0120079Y0244074D01*
X0120079Y0246376D01*
X0119312Y0247143D01*
X0117777Y0247143D01*
X0117010Y0246376D01*
X0117010Y0244074D01*
X0117010Y0245609D02*
X0115475Y0247143D01*
X0115475Y0248678D02*
X0118544Y0251747D01*
X0119312Y0251747D01*
X0120079Y0250980D01*
X0120079Y0249445D01*
X0119312Y0248678D01*
X0115475Y0248678D02*
X0115475Y0251747D01*
X0116242Y0253282D02*
X0115475Y0254049D01*
X0115475Y0255584D01*
X0116242Y0256351D01*
X0117010Y0256351D01*
X0117777Y0255584D01*
X0117777Y0253282D01*
X0116242Y0253282D01*
X0117777Y0253282D02*
X0119312Y0254816D01*
X0120079Y0256351D01*
X0123228Y0257500D02*
X0123228Y0259035D01*
X0123996Y0259802D01*
X0123228Y0261337D02*
X0126298Y0264406D01*
X0127065Y0264406D01*
X0127832Y0263639D01*
X0127832Y0262104D01*
X0127065Y0261337D01*
X0127065Y0259802D02*
X0127832Y0259035D01*
X0127832Y0257500D01*
X0127065Y0256733D01*
X0123996Y0256733D01*
X0123228Y0257500D01*
X0123228Y0261337D02*
X0123228Y0264406D01*
X0123228Y0265941D02*
X0126298Y0269010D01*
X0127065Y0269010D01*
X0127832Y0268243D01*
X0127832Y0266708D01*
X0127065Y0265941D01*
X0123228Y0265941D02*
X0123228Y0269010D01*
X0135873Y0295483D02*
X0137407Y0295483D01*
X0138175Y0296250D01*
X0139709Y0296250D02*
X0140477Y0295483D01*
X0142011Y0295483D01*
X0142778Y0296250D01*
X0142778Y0299320D01*
X0142011Y0300087D01*
X0140477Y0300087D01*
X0139709Y0299320D01*
X0138175Y0299320D02*
X0137407Y0300087D01*
X0135873Y0300087D01*
X0135105Y0299320D01*
X0135105Y0298552D01*
X0135873Y0297785D01*
X0135105Y0297018D01*
X0135105Y0296250D01*
X0135873Y0295483D01*
X0135873Y0297785D02*
X0136640Y0297785D01*
X0161405Y0302400D02*
X0162173Y0301633D01*
X0163707Y0301633D01*
X0164475Y0302400D01*
X0164475Y0303168D01*
X0163707Y0303935D01*
X0162173Y0303935D01*
X0161405Y0303168D01*
X0161405Y0302400D01*
X0162173Y0303935D02*
X0161405Y0304702D01*
X0161405Y0305470D01*
X0162173Y0306237D01*
X0163707Y0306237D01*
X0164475Y0305470D01*
X0164475Y0304702D01*
X0163707Y0303935D01*
X0166009Y0302400D02*
X0166777Y0301633D01*
X0168311Y0301633D01*
X0169078Y0302400D01*
X0169078Y0305470D01*
X0168311Y0306237D01*
X0166777Y0306237D01*
X0166009Y0305470D01*
X0092132Y0252798D02*
X0092132Y0249729D01*
X0091365Y0248194D02*
X0092132Y0247427D01*
X0092132Y0245893D01*
X0091365Y0245125D01*
X0091365Y0243591D02*
X0092132Y0242823D01*
X0092132Y0241289D01*
X0091365Y0240521D01*
X0088296Y0240521D01*
X0087528Y0241289D01*
X0087528Y0242823D01*
X0088296Y0243591D01*
X0087528Y0245125D02*
X0090598Y0248194D01*
X0091365Y0248194D01*
X0088296Y0249729D02*
X0087528Y0249729D01*
X0088296Y0249729D02*
X0091365Y0252798D01*
X0092132Y0252798D01*
X0087528Y0248194D02*
X0087528Y0245125D01*
X0089146Y0233248D02*
X0088378Y0232481D01*
X0088378Y0230946D01*
X0089146Y0230179D01*
X0089913Y0230179D01*
X0090680Y0230946D01*
X0090680Y0232481D01*
X0089913Y0233248D01*
X0089146Y0233248D01*
X0090680Y0232481D02*
X0091448Y0233248D01*
X0092215Y0233248D01*
X0092982Y0232481D01*
X0092982Y0230946D01*
X0092215Y0230179D01*
X0091448Y0230179D01*
X0090680Y0230946D01*
X0091448Y0228644D02*
X0088378Y0225575D01*
X0088378Y0228644D01*
X0091448Y0228644D02*
X0092215Y0228644D01*
X0092982Y0227877D01*
X0092982Y0226343D01*
X0092215Y0225575D01*
X0092215Y0224041D02*
X0092982Y0223273D01*
X0092982Y0221739D01*
X0092215Y0220971D01*
X0089146Y0220971D01*
X0088378Y0221739D01*
X0088378Y0223273D01*
X0089146Y0224041D01*
X0078319Y0310583D02*
X0076784Y0310583D01*
X0076017Y0311350D01*
X0074482Y0311350D02*
X0073715Y0310583D01*
X0072180Y0310583D01*
X0071413Y0311350D01*
X0071413Y0312118D01*
X0072180Y0312885D01*
X0074482Y0312885D01*
X0074482Y0311350D01*
X0074482Y0312885D02*
X0072948Y0314420D01*
X0071413Y0315187D01*
X0076017Y0314420D02*
X0076784Y0315187D01*
X0078319Y0315187D01*
X0079086Y0314420D01*
X0079086Y0311350D01*
X0078319Y0310583D01*
X0064565Y0137752D02*
X0064565Y0134683D01*
X0064565Y0136217D02*
X0069169Y0136217D01*
X0067635Y0134683D01*
X0067635Y0133148D02*
X0066867Y0132381D01*
X0066100Y0133148D01*
X0065333Y0133148D01*
X0064565Y0132381D01*
X0064565Y0130846D01*
X0065333Y0130079D01*
X0065333Y0128544D02*
X0064565Y0127777D01*
X0064565Y0126242D01*
X0065333Y0125475D01*
X0068402Y0125475D01*
X0069169Y0126242D01*
X0069169Y0127777D01*
X0068402Y0128544D01*
X0068402Y0130079D02*
X0069169Y0130846D01*
X0069169Y0132381D01*
X0068402Y0133148D01*
X0067635Y0133148D01*
X0066867Y0132381D02*
X0066867Y0131613D01*
X0067120Y0119698D02*
X0068655Y0119698D01*
X0069422Y0118930D01*
X0069422Y0115861D01*
X0068655Y0115094D01*
X0067120Y0115094D01*
X0066353Y0115861D01*
X0064818Y0115861D02*
X0064051Y0115094D01*
X0062516Y0115094D01*
X0061749Y0115861D01*
X0061749Y0116628D01*
X0062516Y0117396D01*
X0063284Y0117396D01*
X0062516Y0117396D02*
X0061749Y0118163D01*
X0061749Y0118930D01*
X0062516Y0119698D01*
X0064051Y0119698D01*
X0064818Y0118930D01*
X0066353Y0118930D02*
X0067120Y0119698D01*
X0060214Y0117396D02*
X0060214Y0115861D01*
X0059447Y0115094D01*
X0057912Y0115094D01*
X0057145Y0115861D01*
X0057145Y0116628D01*
X0057912Y0117396D01*
X0060214Y0117396D01*
X0058680Y0118930D01*
X0057145Y0119698D01*
X0090337Y0122046D02*
X0094941Y0122046D01*
X0094941Y0124348D01*
X0094174Y0125116D01*
X0092639Y0125116D01*
X0091872Y0124348D01*
X0091872Y0122046D01*
X0091872Y0123581D02*
X0090337Y0125116D01*
X0092639Y0126650D02*
X0092639Y0129720D01*
X0092639Y0131254D02*
X0092639Y0134324D01*
X0090337Y0133556D02*
X0094941Y0133556D01*
X0092639Y0131254D01*
X0090337Y0128952D02*
X0094941Y0128952D01*
X0092639Y0126650D01*
X0089969Y0066965D02*
X0087667Y0066965D01*
X0086900Y0066198D01*
X0086900Y0064663D01*
X0087667Y0063896D01*
X0089969Y0063896D01*
X0088435Y0063896D02*
X0086900Y0062361D01*
X0085365Y0064663D02*
X0083064Y0066965D01*
X0083064Y0062361D01*
X0080762Y0062361D02*
X0077692Y0062361D01*
X0079227Y0062361D02*
X0079227Y0066965D01*
X0080762Y0065431D01*
X0082296Y0064663D02*
X0085365Y0064663D01*
X0089969Y0062361D02*
X0089969Y0066965D01*
X0075685Y0060115D02*
X0075685Y0055511D01*
X0075685Y0057046D02*
X0073383Y0057046D01*
X0072616Y0057813D01*
X0072616Y0059348D01*
X0073383Y0060115D01*
X0075685Y0060115D01*
X0074151Y0057046D02*
X0072616Y0055511D01*
X0071081Y0057813D02*
X0068779Y0060115D01*
X0068779Y0055511D01*
X0066477Y0055511D02*
X0063408Y0058580D01*
X0063408Y0059348D01*
X0064175Y0060115D01*
X0065710Y0060115D01*
X0066477Y0059348D01*
X0068012Y0057813D02*
X0071081Y0057813D01*
X0066477Y0055511D02*
X0063408Y0055511D01*
X0061686Y0063228D02*
X0061686Y0067831D01*
X0063988Y0065530D01*
X0060918Y0065530D01*
X0059384Y0067064D02*
X0058616Y0067831D01*
X0057082Y0067831D01*
X0056314Y0067064D01*
X0056314Y0066297D01*
X0057082Y0065530D01*
X0056314Y0064762D01*
X0056314Y0063995D01*
X0057082Y0063228D01*
X0058616Y0063228D01*
X0059384Y0063995D01*
X0057849Y0065530D02*
X0057082Y0065530D01*
X0065522Y0065530D02*
X0066289Y0064762D01*
X0068591Y0064762D01*
X0067057Y0064762D02*
X0065522Y0063228D01*
X0065522Y0065530D02*
X0065522Y0067064D01*
X0066289Y0067831D01*
X0068591Y0067831D01*
X0068591Y0063228D01*
X0303301Y0056120D02*
X0303301Y0055352D01*
X0304069Y0054585D01*
X0305603Y0054585D01*
X0306371Y0055352D01*
X0306371Y0056120D01*
X0305603Y0056887D01*
X0304069Y0056887D01*
X0303301Y0056120D01*
X0304069Y0054585D02*
X0303301Y0053818D01*
X0303301Y0053050D01*
X0304069Y0052283D01*
X0305603Y0052283D01*
X0306371Y0053050D01*
X0306371Y0053818D01*
X0305603Y0054585D01*
X0307905Y0052283D02*
X0310975Y0052283D01*
X0312509Y0052283D02*
X0314044Y0053818D01*
X0313277Y0053818D02*
X0315578Y0053818D01*
X0315578Y0052283D02*
X0315578Y0056887D01*
X0313277Y0056887D01*
X0312509Y0056120D01*
X0312509Y0054585D01*
X0313277Y0053818D01*
X0310975Y0055352D02*
X0309440Y0056887D01*
X0309440Y0052283D01*
D12*
X0302377Y0157186D02*
X0302377Y0170386D01*
X0321977Y0170386D02*
X0321977Y0164986D01*
X0321977Y0162586D01*
X0321977Y0157186D01*
X0321977Y0162586D02*
X0321908Y0162588D01*
X0321840Y0162594D01*
X0321772Y0162604D01*
X0321705Y0162617D01*
X0321639Y0162635D01*
X0321574Y0162656D01*
X0321510Y0162681D01*
X0321448Y0162709D01*
X0321387Y0162741D01*
X0321328Y0162776D01*
X0321272Y0162815D01*
X0321217Y0162857D01*
X0321166Y0162902D01*
X0321116Y0162950D01*
X0321070Y0163000D01*
X0321027Y0163053D01*
X0320986Y0163109D01*
X0320949Y0163166D01*
X0320916Y0163226D01*
X0320885Y0163288D01*
X0320859Y0163351D01*
X0320836Y0163415D01*
X0320816Y0163481D01*
X0320801Y0163548D01*
X0320789Y0163615D01*
X0320781Y0163683D01*
X0320777Y0163752D01*
X0320777Y0163820D01*
X0320781Y0163889D01*
X0320789Y0163957D01*
X0320801Y0164024D01*
X0320816Y0164091D01*
X0320836Y0164157D01*
X0320859Y0164221D01*
X0320885Y0164284D01*
X0320916Y0164346D01*
X0320949Y0164406D01*
X0320986Y0164463D01*
X0321027Y0164519D01*
X0321070Y0164572D01*
X0321116Y0164622D01*
X0321166Y0164670D01*
X0321217Y0164715D01*
X0321272Y0164757D01*
X0321328Y0164796D01*
X0321387Y0164831D01*
X0321448Y0164863D01*
X0321510Y0164891D01*
X0321574Y0164916D01*
X0321639Y0164937D01*
X0321705Y0164955D01*
X0321772Y0164968D01*
X0321840Y0164978D01*
X0321908Y0164984D01*
X0321977Y0164986D01*
X0253878Y0256583D02*
X0247878Y0256583D01*
X0247818Y0256585D01*
X0247757Y0256590D01*
X0247698Y0256599D01*
X0247639Y0256612D01*
X0247580Y0256628D01*
X0247523Y0256648D01*
X0247468Y0256671D01*
X0247413Y0256698D01*
X0247361Y0256727D01*
X0247310Y0256760D01*
X0247261Y0256796D01*
X0247215Y0256834D01*
X0247171Y0256876D01*
X0247129Y0256920D01*
X0247091Y0256966D01*
X0247055Y0257015D01*
X0247022Y0257066D01*
X0246993Y0257118D01*
X0246966Y0257173D01*
X0246943Y0257228D01*
X0246923Y0257285D01*
X0246907Y0257344D01*
X0246894Y0257403D01*
X0246885Y0257462D01*
X0246880Y0257523D01*
X0246878Y0257583D01*
X0246878Y0274583D01*
X0246880Y0274643D01*
X0246885Y0274704D01*
X0246894Y0274763D01*
X0246907Y0274822D01*
X0246923Y0274881D01*
X0246943Y0274938D01*
X0246966Y0274993D01*
X0246993Y0275048D01*
X0247022Y0275100D01*
X0247055Y0275151D01*
X0247091Y0275200D01*
X0247129Y0275246D01*
X0247171Y0275290D01*
X0247215Y0275332D01*
X0247261Y0275370D01*
X0247310Y0275406D01*
X0247361Y0275439D01*
X0247413Y0275468D01*
X0247468Y0275495D01*
X0247523Y0275518D01*
X0247580Y0275538D01*
X0247639Y0275554D01*
X0247698Y0275567D01*
X0247757Y0275576D01*
X0247818Y0275581D01*
X0247878Y0275583D01*
X0253878Y0275583D01*
X0253938Y0275581D01*
X0253999Y0275576D01*
X0254058Y0275567D01*
X0254117Y0275554D01*
X0254176Y0275538D01*
X0254233Y0275518D01*
X0254288Y0275495D01*
X0254343Y0275468D01*
X0254395Y0275439D01*
X0254446Y0275406D01*
X0254495Y0275370D01*
X0254541Y0275332D01*
X0254585Y0275290D01*
X0254627Y0275246D01*
X0254665Y0275200D01*
X0254701Y0275151D01*
X0254734Y0275100D01*
X0254763Y0275048D01*
X0254790Y0274993D01*
X0254813Y0274938D01*
X0254833Y0274881D01*
X0254849Y0274822D01*
X0254862Y0274763D01*
X0254871Y0274704D01*
X0254876Y0274643D01*
X0254878Y0274583D01*
X0254878Y0257583D01*
X0254876Y0257523D01*
X0254871Y0257462D01*
X0254862Y0257403D01*
X0254849Y0257344D01*
X0254833Y0257285D01*
X0254813Y0257228D01*
X0254790Y0257173D01*
X0254763Y0257118D01*
X0254734Y0257066D01*
X0254701Y0257015D01*
X0254665Y0256966D01*
X0254627Y0256920D01*
X0254585Y0256876D01*
X0254541Y0256834D01*
X0254495Y0256796D01*
X0254446Y0256760D01*
X0254395Y0256727D01*
X0254343Y0256698D01*
X0254288Y0256671D01*
X0254233Y0256648D01*
X0254176Y0256628D01*
X0254117Y0256612D01*
X0254058Y0256599D01*
X0253999Y0256590D01*
X0253938Y0256585D01*
X0253878Y0256583D01*
X0276741Y0263824D02*
X0294716Y0263824D01*
X0288728Y0285242D02*
X0288730Y0285326D01*
X0288736Y0285411D01*
X0288746Y0285494D01*
X0288760Y0285578D01*
X0288777Y0285660D01*
X0288799Y0285742D01*
X0288824Y0285822D01*
X0288853Y0285901D01*
X0288886Y0285979D01*
X0288922Y0286055D01*
X0288962Y0286130D01*
X0289006Y0286202D01*
X0289052Y0286273D01*
X0289102Y0286341D01*
X0289155Y0286406D01*
X0289211Y0286469D01*
X0289270Y0286530D01*
X0289332Y0286587D01*
X0289396Y0286642D01*
X0289463Y0286693D01*
X0289532Y0286742D01*
X0289604Y0286787D01*
X0289677Y0286828D01*
X0289752Y0286866D01*
X0289829Y0286901D01*
X0289908Y0286932D01*
X0289988Y0286959D01*
X0290069Y0286982D01*
X0290151Y0287002D01*
X0290234Y0287018D01*
X0290317Y0287030D01*
X0290402Y0287038D01*
X0290486Y0287042D01*
X0290570Y0287042D01*
X0290654Y0287038D01*
X0290739Y0287030D01*
X0290822Y0287018D01*
X0290905Y0287002D01*
X0290987Y0286982D01*
X0291068Y0286959D01*
X0291148Y0286932D01*
X0291227Y0286901D01*
X0291304Y0286866D01*
X0291379Y0286828D01*
X0291452Y0286787D01*
X0291524Y0286742D01*
X0291593Y0286693D01*
X0291660Y0286642D01*
X0291724Y0286587D01*
X0291786Y0286530D01*
X0291845Y0286469D01*
X0291901Y0286406D01*
X0291954Y0286341D01*
X0292004Y0286273D01*
X0292050Y0286202D01*
X0292094Y0286130D01*
X0292134Y0286055D01*
X0292170Y0285979D01*
X0292203Y0285901D01*
X0292232Y0285822D01*
X0292257Y0285742D01*
X0292279Y0285660D01*
X0292296Y0285578D01*
X0292310Y0285494D01*
X0292320Y0285411D01*
X0292326Y0285326D01*
X0292328Y0285242D01*
X0292326Y0285158D01*
X0292320Y0285073D01*
X0292310Y0284990D01*
X0292296Y0284906D01*
X0292279Y0284824D01*
X0292257Y0284742D01*
X0292232Y0284662D01*
X0292203Y0284583D01*
X0292170Y0284505D01*
X0292134Y0284429D01*
X0292094Y0284354D01*
X0292050Y0284282D01*
X0292004Y0284211D01*
X0291954Y0284143D01*
X0291901Y0284078D01*
X0291845Y0284015D01*
X0291786Y0283954D01*
X0291724Y0283897D01*
X0291660Y0283842D01*
X0291593Y0283791D01*
X0291524Y0283742D01*
X0291452Y0283697D01*
X0291379Y0283656D01*
X0291304Y0283618D01*
X0291227Y0283583D01*
X0291148Y0283552D01*
X0291068Y0283525D01*
X0290987Y0283502D01*
X0290905Y0283482D01*
X0290822Y0283466D01*
X0290739Y0283454D01*
X0290654Y0283446D01*
X0290570Y0283442D01*
X0290486Y0283442D01*
X0290402Y0283446D01*
X0290317Y0283454D01*
X0290234Y0283466D01*
X0290151Y0283482D01*
X0290069Y0283502D01*
X0289988Y0283525D01*
X0289908Y0283552D01*
X0289829Y0283583D01*
X0289752Y0283618D01*
X0289677Y0283656D01*
X0289604Y0283697D01*
X0289532Y0283742D01*
X0289463Y0283791D01*
X0289396Y0283842D01*
X0289332Y0283897D01*
X0289270Y0283954D01*
X0289211Y0284015D01*
X0289155Y0284078D01*
X0289102Y0284143D01*
X0289052Y0284211D01*
X0289006Y0284282D01*
X0288962Y0284354D01*
X0288922Y0284429D01*
X0288886Y0284505D01*
X0288853Y0284583D01*
X0288824Y0284662D01*
X0288799Y0284742D01*
X0288777Y0284824D01*
X0288760Y0284906D01*
X0288746Y0284990D01*
X0288736Y0285073D01*
X0288730Y0285158D01*
X0288728Y0285242D01*
X0294716Y0288742D02*
X0276741Y0288742D01*
X0320019Y0292796D02*
X0320019Y0310770D01*
X0339638Y0296983D02*
X0339640Y0297067D01*
X0339646Y0297152D01*
X0339656Y0297235D01*
X0339670Y0297319D01*
X0339687Y0297401D01*
X0339709Y0297483D01*
X0339734Y0297563D01*
X0339763Y0297642D01*
X0339796Y0297720D01*
X0339832Y0297796D01*
X0339872Y0297871D01*
X0339916Y0297943D01*
X0339962Y0298014D01*
X0340012Y0298082D01*
X0340065Y0298147D01*
X0340121Y0298210D01*
X0340180Y0298271D01*
X0340242Y0298328D01*
X0340306Y0298383D01*
X0340373Y0298434D01*
X0340442Y0298483D01*
X0340514Y0298528D01*
X0340587Y0298569D01*
X0340662Y0298607D01*
X0340739Y0298642D01*
X0340818Y0298673D01*
X0340898Y0298700D01*
X0340979Y0298723D01*
X0341061Y0298743D01*
X0341144Y0298759D01*
X0341227Y0298771D01*
X0341312Y0298779D01*
X0341396Y0298783D01*
X0341480Y0298783D01*
X0341564Y0298779D01*
X0341649Y0298771D01*
X0341732Y0298759D01*
X0341815Y0298743D01*
X0341897Y0298723D01*
X0341978Y0298700D01*
X0342058Y0298673D01*
X0342137Y0298642D01*
X0342214Y0298607D01*
X0342289Y0298569D01*
X0342362Y0298528D01*
X0342434Y0298483D01*
X0342503Y0298434D01*
X0342570Y0298383D01*
X0342634Y0298328D01*
X0342696Y0298271D01*
X0342755Y0298210D01*
X0342811Y0298147D01*
X0342864Y0298082D01*
X0342914Y0298014D01*
X0342960Y0297943D01*
X0343004Y0297871D01*
X0343044Y0297796D01*
X0343080Y0297720D01*
X0343113Y0297642D01*
X0343142Y0297563D01*
X0343167Y0297483D01*
X0343189Y0297401D01*
X0343206Y0297319D01*
X0343220Y0297235D01*
X0343230Y0297152D01*
X0343236Y0297067D01*
X0343238Y0296983D01*
X0343236Y0296899D01*
X0343230Y0296814D01*
X0343220Y0296731D01*
X0343206Y0296647D01*
X0343189Y0296565D01*
X0343167Y0296483D01*
X0343142Y0296403D01*
X0343113Y0296324D01*
X0343080Y0296246D01*
X0343044Y0296170D01*
X0343004Y0296095D01*
X0342960Y0296023D01*
X0342914Y0295952D01*
X0342864Y0295884D01*
X0342811Y0295819D01*
X0342755Y0295756D01*
X0342696Y0295695D01*
X0342634Y0295638D01*
X0342570Y0295583D01*
X0342503Y0295532D01*
X0342434Y0295483D01*
X0342362Y0295438D01*
X0342289Y0295397D01*
X0342214Y0295359D01*
X0342137Y0295324D01*
X0342058Y0295293D01*
X0341978Y0295266D01*
X0341897Y0295243D01*
X0341815Y0295223D01*
X0341732Y0295207D01*
X0341649Y0295195D01*
X0341564Y0295187D01*
X0341480Y0295183D01*
X0341396Y0295183D01*
X0341312Y0295187D01*
X0341227Y0295195D01*
X0341144Y0295207D01*
X0341061Y0295223D01*
X0340979Y0295243D01*
X0340898Y0295266D01*
X0340818Y0295293D01*
X0340739Y0295324D01*
X0340662Y0295359D01*
X0340587Y0295397D01*
X0340514Y0295438D01*
X0340442Y0295483D01*
X0340373Y0295532D01*
X0340306Y0295583D01*
X0340242Y0295638D01*
X0340180Y0295695D01*
X0340121Y0295756D01*
X0340065Y0295819D01*
X0340012Y0295884D01*
X0339962Y0295952D01*
X0339916Y0296023D01*
X0339872Y0296095D01*
X0339832Y0296170D01*
X0339796Y0296246D01*
X0339763Y0296324D01*
X0339734Y0296403D01*
X0339709Y0296483D01*
X0339687Y0296565D01*
X0339670Y0296647D01*
X0339656Y0296731D01*
X0339646Y0296814D01*
X0339640Y0296899D01*
X0339638Y0296983D01*
X0344938Y0292796D02*
X0344938Y0310770D01*
X0140255Y0246276D02*
X0140255Y0236591D01*
X0139232Y0235567D02*
X0129547Y0235567D01*
X0129586Y0235567D02*
X0129524Y0235569D01*
X0129463Y0235575D01*
X0129402Y0235584D01*
X0129341Y0235598D01*
X0129282Y0235615D01*
X0129224Y0235636D01*
X0129167Y0235661D01*
X0129112Y0235689D01*
X0129059Y0235720D01*
X0129008Y0235755D01*
X0128959Y0235793D01*
X0128912Y0235834D01*
X0128869Y0235877D01*
X0128828Y0235924D01*
X0128790Y0235973D01*
X0128755Y0236024D01*
X0128724Y0236077D01*
X0128696Y0236132D01*
X0128671Y0236189D01*
X0128650Y0236247D01*
X0128633Y0236306D01*
X0128619Y0236367D01*
X0128610Y0236428D01*
X0128604Y0236489D01*
X0128602Y0236551D01*
X0128602Y0246276D01*
X0128604Y0246338D01*
X0128610Y0246399D01*
X0128619Y0246460D01*
X0128633Y0246521D01*
X0128650Y0246580D01*
X0128671Y0246638D01*
X0128696Y0246695D01*
X0128724Y0246750D01*
X0128755Y0246803D01*
X0128790Y0246854D01*
X0128828Y0246903D01*
X0128869Y0246950D01*
X0128912Y0246993D01*
X0128959Y0247034D01*
X0129008Y0247072D01*
X0129059Y0247107D01*
X0129112Y0247138D01*
X0129167Y0247166D01*
X0129224Y0247191D01*
X0129282Y0247212D01*
X0129341Y0247229D01*
X0129402Y0247243D01*
X0129463Y0247252D01*
X0129524Y0247258D01*
X0129586Y0247260D01*
X0129547Y0247260D02*
X0139232Y0247260D01*
D13*
X0322211Y0153572D02*
X0325347Y0150436D01*
X0323779Y0150436D02*
X0323779Y0153572D01*
X0325347Y0153572D02*
X0322211Y0150436D01*
X0322211Y0152004D02*
X0325347Y0152004D01*
D14*
X0259882Y0256833D02*
X0259131Y0256833D01*
X0258380Y0257584D01*
X0258380Y0259085D01*
X0257630Y0259836D01*
X0256879Y0259836D01*
X0256128Y0259085D01*
X0256128Y0257584D01*
X0256879Y0256833D01*
X0259882Y0256833D02*
X0260632Y0257584D01*
X0260632Y0259085D01*
X0259882Y0259836D01*
X0260632Y0262938D02*
X0260632Y0264440D01*
X0260632Y0263689D02*
X0256879Y0263689D01*
X0256128Y0262938D01*
X0256128Y0262188D01*
X0256879Y0261437D01*
X0256128Y0266041D02*
X0256128Y0269043D01*
X0256128Y0267542D02*
X0260632Y0267542D01*
X0259131Y0266041D01*
X0151447Y0275515D02*
X0151447Y0279452D01*
X0141210Y0279452D01*
X0141210Y0275515D01*
X0151447Y0275515D01*
X0126279Y0287201D02*
X0126279Y0291138D01*
X0116043Y0291138D01*
X0116043Y0287201D01*
X0126279Y0287201D01*
X0378629Y0283548D02*
X0378629Y0338272D01*
X0441621Y0338272D01*
X0441621Y0283548D01*
X0378629Y0283548D01*
X0442802Y0292209D02*
X0446739Y0292209D01*
X0446653Y0292211D01*
X0446567Y0292216D01*
X0446482Y0292226D01*
X0446397Y0292239D01*
X0446313Y0292256D01*
X0446229Y0292276D01*
X0446147Y0292300D01*
X0446066Y0292328D01*
X0445985Y0292359D01*
X0445907Y0292393D01*
X0445830Y0292431D01*
X0445755Y0292473D01*
X0445681Y0292517D01*
X0445610Y0292565D01*
X0445540Y0292616D01*
X0445473Y0292670D01*
X0445409Y0292726D01*
X0445347Y0292786D01*
X0445287Y0292848D01*
X0445231Y0292912D01*
X0445177Y0292979D01*
X0445126Y0293049D01*
X0445078Y0293120D01*
X0445034Y0293194D01*
X0444992Y0293269D01*
X0444954Y0293346D01*
X0444920Y0293424D01*
X0444889Y0293505D01*
X0444861Y0293586D01*
X0444837Y0293668D01*
X0444817Y0293752D01*
X0444800Y0293836D01*
X0444787Y0293921D01*
X0444777Y0294006D01*
X0444772Y0294092D01*
X0444770Y0294178D01*
X0444771Y0294178D02*
X0442802Y0313863D01*
X0444771Y0333548D01*
X0444770Y0333548D02*
X0444772Y0333634D01*
X0444777Y0333720D01*
X0444787Y0333805D01*
X0444800Y0333890D01*
X0444817Y0333974D01*
X0444837Y0334058D01*
X0444861Y0334140D01*
X0444889Y0334221D01*
X0444920Y0334302D01*
X0444954Y0334380D01*
X0444992Y0334457D01*
X0445034Y0334533D01*
X0445078Y0334606D01*
X0445126Y0334677D01*
X0445177Y0334747D01*
X0445231Y0334814D01*
X0445287Y0334878D01*
X0445347Y0334940D01*
X0445409Y0335000D01*
X0445473Y0335056D01*
X0445540Y0335110D01*
X0445610Y0335161D01*
X0445681Y0335209D01*
X0445755Y0335253D01*
X0445830Y0335295D01*
X0445907Y0335333D01*
X0445985Y0335367D01*
X0446066Y0335398D01*
X0446147Y0335426D01*
X0446229Y0335450D01*
X0446313Y0335470D01*
X0446397Y0335487D01*
X0446482Y0335500D01*
X0446567Y0335510D01*
X0446653Y0335515D01*
X0446739Y0335517D01*
X0446739Y0335516D02*
X0442802Y0335516D01*
X0446739Y0335517D02*
X0446825Y0335515D01*
X0446911Y0335510D01*
X0446996Y0335500D01*
X0447081Y0335487D01*
X0447165Y0335470D01*
X0447249Y0335450D01*
X0447331Y0335426D01*
X0447412Y0335398D01*
X0447493Y0335367D01*
X0447571Y0335333D01*
X0447648Y0335295D01*
X0447724Y0335253D01*
X0447797Y0335209D01*
X0447868Y0335161D01*
X0447938Y0335110D01*
X0448005Y0335056D01*
X0448069Y0335000D01*
X0448131Y0334940D01*
X0448191Y0334878D01*
X0448247Y0334814D01*
X0448301Y0334747D01*
X0448352Y0334677D01*
X0448400Y0334606D01*
X0448444Y0334533D01*
X0448486Y0334457D01*
X0448524Y0334380D01*
X0448558Y0334302D01*
X0448589Y0334221D01*
X0448617Y0334140D01*
X0448641Y0334058D01*
X0448661Y0333974D01*
X0448678Y0333890D01*
X0448691Y0333805D01*
X0448701Y0333720D01*
X0448706Y0333634D01*
X0448708Y0333548D01*
X0448708Y0294178D01*
X0448706Y0294092D01*
X0448701Y0294006D01*
X0448691Y0293921D01*
X0448678Y0293836D01*
X0448661Y0293752D01*
X0448641Y0293668D01*
X0448617Y0293586D01*
X0448589Y0293505D01*
X0448558Y0293424D01*
X0448524Y0293346D01*
X0448486Y0293269D01*
X0448444Y0293194D01*
X0448400Y0293120D01*
X0448352Y0293049D01*
X0448301Y0292979D01*
X0448247Y0292912D01*
X0448191Y0292848D01*
X0448131Y0292786D01*
X0448069Y0292726D01*
X0448005Y0292670D01*
X0447938Y0292616D01*
X0447868Y0292565D01*
X0447797Y0292517D01*
X0447724Y0292473D01*
X0447648Y0292431D01*
X0447571Y0292393D01*
X0447493Y0292359D01*
X0447412Y0292328D01*
X0447331Y0292300D01*
X0447249Y0292276D01*
X0447165Y0292256D01*
X0447081Y0292239D01*
X0446996Y0292226D01*
X0446911Y0292216D01*
X0446825Y0292211D01*
X0446739Y0292209D01*
D15*
X0431382Y0292165D02*
X0427178Y0292165D01*
X0427178Y0293967D02*
X0431382Y0293967D01*
X0431382Y0296068D01*
X0430681Y0296769D01*
X0429280Y0296769D01*
X0428580Y0296068D01*
X0428580Y0293967D01*
X0428580Y0295368D02*
X0427178Y0296769D01*
X0427879Y0298570D02*
X0427178Y0299271D01*
X0427178Y0300672D01*
X0427879Y0301373D01*
X0428580Y0301373D01*
X0429280Y0300672D01*
X0429280Y0299271D01*
X0429981Y0298570D01*
X0430681Y0298570D01*
X0431382Y0299271D01*
X0431382Y0300672D01*
X0430681Y0301373D01*
X0431382Y0307778D02*
X0427178Y0307778D01*
X0427178Y0309880D01*
X0427879Y0310581D01*
X0430681Y0310581D01*
X0431382Y0309880D01*
X0431382Y0307778D01*
X0431382Y0312382D02*
X0427178Y0312382D01*
X0427178Y0315185D02*
X0431382Y0315185D01*
X0429981Y0313783D01*
X0431382Y0312382D01*
X0430681Y0316986D02*
X0431382Y0317687D01*
X0431382Y0319088D01*
X0430681Y0319789D01*
X0429981Y0319789D01*
X0429280Y0319088D01*
X0428580Y0319789D01*
X0427879Y0319789D01*
X0427178Y0319088D01*
X0427178Y0317687D01*
X0427879Y0316986D01*
X0429280Y0318387D02*
X0429280Y0319088D01*
X0429280Y0321590D02*
X0429280Y0324392D01*
X0429981Y0324392D02*
X0427178Y0324392D01*
X0427178Y0321590D02*
X0429981Y0321590D01*
X0431382Y0322991D01*
X0429981Y0324392D01*
X0431382Y0326194D02*
X0431382Y0328996D01*
X0431382Y0327595D02*
X0427178Y0327595D01*
X0412484Y0326895D02*
X0411784Y0326194D01*
X0408981Y0326194D01*
X0408281Y0326895D01*
X0408281Y0328296D01*
X0408981Y0328996D01*
X0411784Y0328996D02*
X0412484Y0328296D01*
X0412484Y0326895D01*
X0411784Y0324392D02*
X0408981Y0324392D01*
X0408281Y0323692D01*
X0408281Y0321590D01*
X0412484Y0321590D01*
X0412484Y0323692D01*
X0411784Y0324392D01*
X0411784Y0319789D02*
X0412484Y0319088D01*
X0412484Y0317687D01*
X0411784Y0316986D01*
X0411083Y0316986D01*
X0410383Y0317687D01*
X0410383Y0319088D01*
X0409682Y0319789D01*
X0408981Y0319789D01*
X0408281Y0319088D01*
X0408281Y0317687D01*
X0408981Y0316986D01*
X0408981Y0315185D02*
X0410383Y0315185D01*
X0411083Y0314484D01*
X0411083Y0313083D01*
X0410383Y0312382D01*
X0408981Y0312382D01*
X0408281Y0313083D01*
X0408281Y0314484D01*
X0408981Y0315185D01*
X0411083Y0310647D02*
X0411083Y0309947D01*
X0409682Y0308546D01*
X0408281Y0308546D02*
X0411083Y0308546D01*
X0411083Y0306744D02*
X0411083Y0304642D01*
X0410383Y0303942D01*
X0408981Y0303942D01*
X0408281Y0304642D01*
X0408281Y0306744D01*
X0408281Y0302274D02*
X0408281Y0300872D01*
X0408281Y0301573D02*
X0411083Y0301573D01*
X0411083Y0300872D01*
X0412484Y0301573D02*
X0413185Y0301573D01*
X0413793Y0302172D02*
X0414493Y0301471D01*
X0415894Y0301471D01*
X0416595Y0302172D01*
X0416595Y0303573D01*
X0415894Y0304274D01*
X0415194Y0304274D01*
X0415194Y0301471D01*
X0413793Y0302172D02*
X0413793Y0303573D01*
X0414493Y0306776D02*
X0413793Y0307476D01*
X0414493Y0306776D02*
X0417296Y0306776D01*
X0416595Y0307476D02*
X0416595Y0306075D01*
X0416595Y0299736D02*
X0415194Y0297635D01*
X0413793Y0299736D01*
X0413793Y0297635D02*
X0417996Y0297635D01*
X0416595Y0295833D02*
X0416595Y0293731D01*
X0415894Y0293031D01*
X0414493Y0293031D01*
X0413793Y0293731D01*
X0413793Y0295833D01*
X0411083Y0296269D02*
X0411083Y0296969D01*
X0410383Y0297670D01*
X0411083Y0298370D01*
X0410383Y0299071D01*
X0408281Y0299071D01*
X0408281Y0297670D02*
X0410383Y0297670D01*
X0411083Y0296269D02*
X0408281Y0296269D01*
X0413793Y0290529D02*
X0414493Y0291229D01*
X0415894Y0291229D01*
X0416595Y0290529D01*
X0416595Y0289127D01*
X0415894Y0288427D01*
X0414493Y0288427D01*
X0413793Y0289127D01*
X0413793Y0290529D01*
X0414493Y0286625D02*
X0413793Y0285925D01*
X0413793Y0283823D01*
X0415194Y0284523D02*
X0415894Y0283823D01*
X0416595Y0284523D01*
X0416595Y0286625D01*
X0415194Y0285925D02*
X0415194Y0284523D01*
X0415194Y0285925D02*
X0414493Y0286625D01*
X0427178Y0289363D02*
X0431382Y0289363D01*
X0429280Y0289363D02*
X0429280Y0292165D01*
X0283026Y0304970D02*
X0283026Y0317296D01*
X0283035Y0317367D01*
X0283040Y0317438D01*
X0283041Y0317510D01*
X0283038Y0317581D01*
X0283031Y0317652D01*
X0283021Y0317723D01*
X0283007Y0317792D01*
X0282988Y0317862D01*
X0282967Y0317930D01*
X0282941Y0317996D01*
X0282912Y0318061D01*
X0282880Y0318125D01*
X0282844Y0318187D01*
X0282805Y0318246D01*
X0282762Y0318304D01*
X0282717Y0318359D01*
X0282668Y0318411D01*
X0282617Y0318461D01*
X0282564Y0318508D01*
X0282507Y0318552D01*
X0282449Y0318593D01*
X0282388Y0318631D01*
X0282326Y0318665D01*
X0282261Y0318696D01*
X0282195Y0318723D01*
X0282128Y0318747D01*
X0282060Y0318767D01*
X0281990Y0318784D01*
X0281920Y0318796D01*
X0243126Y0318796D01*
X0243126Y0318795D02*
X0243056Y0318804D01*
X0242984Y0318809D01*
X0242913Y0318810D01*
X0242842Y0318807D01*
X0242771Y0318800D01*
X0242700Y0318790D01*
X0242630Y0318776D01*
X0242561Y0318758D01*
X0242493Y0318736D01*
X0242426Y0318710D01*
X0242361Y0318681D01*
X0242298Y0318649D01*
X0242236Y0318613D01*
X0242176Y0318574D01*
X0242119Y0318531D01*
X0242064Y0318486D01*
X0242011Y0318438D01*
X0241961Y0318386D01*
X0241914Y0318333D01*
X0241870Y0318277D01*
X0241830Y0318218D01*
X0241792Y0318157D01*
X0241758Y0318095D01*
X0241727Y0318031D01*
X0241699Y0317965D01*
X0241676Y0317897D01*
X0241656Y0317829D01*
X0241639Y0317759D01*
X0241627Y0317689D01*
X0241626Y0317689D02*
X0241626Y0313733D01*
X0241826Y0313733D02*
X0241924Y0313731D01*
X0242022Y0313725D01*
X0242120Y0313716D01*
X0242217Y0313702D01*
X0242314Y0313685D01*
X0242410Y0313664D01*
X0242505Y0313639D01*
X0242599Y0313611D01*
X0242691Y0313578D01*
X0242783Y0313543D01*
X0242873Y0313503D01*
X0242961Y0313461D01*
X0243048Y0313414D01*
X0243132Y0313365D01*
X0243215Y0313312D01*
X0243295Y0313256D01*
X0243374Y0313196D01*
X0243450Y0313134D01*
X0243523Y0313069D01*
X0243594Y0313001D01*
X0243662Y0312930D01*
X0243727Y0312857D01*
X0243789Y0312781D01*
X0243849Y0312702D01*
X0243905Y0312622D01*
X0243958Y0312539D01*
X0244007Y0312455D01*
X0244054Y0312368D01*
X0244096Y0312280D01*
X0244136Y0312190D01*
X0244171Y0312098D01*
X0244204Y0312006D01*
X0244232Y0311912D01*
X0244257Y0311817D01*
X0244278Y0311721D01*
X0244295Y0311624D01*
X0244309Y0311527D01*
X0244318Y0311429D01*
X0244324Y0311331D01*
X0244326Y0311233D01*
X0244324Y0311135D01*
X0244318Y0311037D01*
X0244309Y0310939D01*
X0244295Y0310842D01*
X0244278Y0310745D01*
X0244257Y0310649D01*
X0244232Y0310554D01*
X0244204Y0310460D01*
X0244171Y0310368D01*
X0244136Y0310276D01*
X0244096Y0310186D01*
X0244054Y0310098D01*
X0244007Y0310011D01*
X0243958Y0309927D01*
X0243905Y0309844D01*
X0243849Y0309764D01*
X0243789Y0309685D01*
X0243727Y0309609D01*
X0243662Y0309536D01*
X0243594Y0309465D01*
X0243523Y0309397D01*
X0243450Y0309332D01*
X0243374Y0309270D01*
X0243295Y0309210D01*
X0243215Y0309154D01*
X0243132Y0309101D01*
X0243048Y0309052D01*
X0242961Y0309005D01*
X0242873Y0308963D01*
X0242783Y0308923D01*
X0242691Y0308888D01*
X0242599Y0308855D01*
X0242505Y0308827D01*
X0242410Y0308802D01*
X0242314Y0308781D01*
X0242217Y0308764D01*
X0242120Y0308750D01*
X0242022Y0308741D01*
X0241924Y0308735D01*
X0241826Y0308733D01*
X0241626Y0308733D02*
X0241626Y0305414D01*
X0241626Y0305364D02*
X0241619Y0305283D01*
X0241615Y0305202D01*
X0241616Y0305121D01*
X0241620Y0305039D01*
X0241628Y0304959D01*
X0241640Y0304878D01*
X0241655Y0304798D01*
X0241675Y0304719D01*
X0241698Y0304641D01*
X0241725Y0304565D01*
X0241755Y0304489D01*
X0241789Y0304415D01*
X0241827Y0304343D01*
X0241868Y0304273D01*
X0241912Y0304205D01*
X0241959Y0304139D01*
X0242010Y0304075D01*
X0242063Y0304014D01*
X0242120Y0303955D01*
X0242179Y0303899D01*
X0242240Y0303846D01*
X0242304Y0303796D01*
X0242371Y0303749D01*
X0242439Y0303705D01*
X0242510Y0303665D01*
X0242582Y0303628D01*
X0242656Y0303594D01*
X0242732Y0303565D01*
X0242809Y0303538D01*
X0242887Y0303516D01*
X0242966Y0303497D01*
X0243046Y0303482D01*
X0243127Y0303470D01*
X0243126Y0303470D02*
X0281526Y0303470D01*
X0281602Y0303472D01*
X0281677Y0303478D01*
X0281753Y0303487D01*
X0281828Y0303501D01*
X0281902Y0303518D01*
X0281975Y0303539D01*
X0282047Y0303563D01*
X0282117Y0303591D01*
X0282186Y0303623D01*
X0282254Y0303658D01*
X0282319Y0303697D01*
X0282383Y0303739D01*
X0282444Y0303784D01*
X0282503Y0303832D01*
X0282559Y0303883D01*
X0282613Y0303937D01*
X0282664Y0303993D01*
X0282712Y0304052D01*
X0282757Y0304113D01*
X0282799Y0304177D01*
X0282838Y0304242D01*
X0282873Y0304310D01*
X0282905Y0304379D01*
X0282933Y0304449D01*
X0282957Y0304521D01*
X0282978Y0304594D01*
X0282995Y0304668D01*
X0283009Y0304743D01*
X0283018Y0304819D01*
X0283024Y0304894D01*
X0283026Y0304970D01*
X0236465Y0292112D02*
X0236465Y0251954D01*
X0215992Y0251954D01*
X0215992Y0292112D01*
X0151047Y0284449D02*
X0149645Y0284449D01*
X0150346Y0284449D02*
X0150346Y0280245D01*
X0151047Y0280245D02*
X0149645Y0280245D01*
X0147977Y0280245D02*
X0145175Y0280245D01*
X0146576Y0280245D02*
X0146576Y0284449D01*
X0147977Y0283048D01*
X0125879Y0291931D02*
X0124478Y0291931D01*
X0125178Y0291931D02*
X0125178Y0296135D01*
X0124478Y0296135D02*
X0125879Y0296135D01*
X0122810Y0295434D02*
X0122109Y0296135D01*
X0120708Y0296135D01*
X0120007Y0295434D01*
X0120007Y0294734D01*
X0122810Y0291931D01*
X0120007Y0291931D01*
D16*
X0247968Y0309200D02*
X0247968Y0309567D01*
X0248335Y0309934D01*
X0249436Y0309934D01*
X0249436Y0309200D01*
X0249069Y0308833D01*
X0248335Y0308833D01*
X0247968Y0309200D01*
X0248702Y0310668D02*
X0249436Y0309934D01*
X0248702Y0310668D02*
X0247968Y0311035D01*
X0250178Y0311035D02*
X0250178Y0309200D01*
X0250545Y0308833D01*
X0251279Y0308833D01*
X0251646Y0309200D01*
X0251646Y0311035D01*
D17*
X0140524Y0246305D02*
X0139984Y0246305D01*
X0139984Y0246306D02*
X0139980Y0246359D01*
X0139972Y0246411D01*
X0139960Y0246463D01*
X0139944Y0246514D01*
X0139925Y0246563D01*
X0139902Y0246611D01*
X0139875Y0246657D01*
X0139845Y0246701D01*
X0139812Y0246742D01*
X0139776Y0246781D01*
X0139737Y0246817D01*
X0139696Y0246850D01*
X0139652Y0246880D01*
X0139606Y0246907D01*
X0139558Y0246930D01*
X0139509Y0246949D01*
X0139458Y0246965D01*
X0139406Y0246977D01*
X0139354Y0246985D01*
X0139301Y0246989D01*
X0139300Y0247529D01*
X0139301Y0247530D01*
X0139369Y0247526D01*
X0139437Y0247519D01*
X0139504Y0247508D01*
X0139571Y0247494D01*
X0139637Y0247476D01*
X0139701Y0247454D01*
X0139765Y0247429D01*
X0139827Y0247400D01*
X0139887Y0247368D01*
X0139945Y0247333D01*
X0140002Y0247295D01*
X0140056Y0247254D01*
X0140108Y0247210D01*
X0140158Y0247163D01*
X0140205Y0247113D01*
X0140249Y0247061D01*
X0140290Y0247007D01*
X0140328Y0246950D01*
X0140363Y0246892D01*
X0140395Y0246832D01*
X0140424Y0246770D01*
X0140449Y0246706D01*
X0140471Y0246642D01*
X0140489Y0246576D01*
X0140503Y0246509D01*
X0140514Y0246442D01*
X0140521Y0246374D01*
X0140525Y0246306D01*
X0140469Y0246306D01*
X0140465Y0246373D01*
X0140458Y0246440D01*
X0140447Y0246507D01*
X0140432Y0246573D01*
X0140413Y0246638D01*
X0140391Y0246701D01*
X0140365Y0246764D01*
X0140336Y0246825D01*
X0140303Y0246884D01*
X0140268Y0246941D01*
X0140229Y0246996D01*
X0140187Y0247049D01*
X0140142Y0247099D01*
X0140094Y0247147D01*
X0140044Y0247192D01*
X0139991Y0247234D01*
X0139936Y0247273D01*
X0139879Y0247308D01*
X0139820Y0247341D01*
X0139759Y0247370D01*
X0139696Y0247396D01*
X0139633Y0247418D01*
X0139568Y0247437D01*
X0139502Y0247452D01*
X0139435Y0247463D01*
X0139368Y0247470D01*
X0139301Y0247474D01*
X0139301Y0247418D01*
X0139368Y0247414D01*
X0139434Y0247406D01*
X0139500Y0247395D01*
X0139564Y0247380D01*
X0139628Y0247361D01*
X0139691Y0247338D01*
X0139752Y0247312D01*
X0139812Y0247282D01*
X0139870Y0247248D01*
X0139925Y0247212D01*
X0139979Y0247172D01*
X0140030Y0247129D01*
X0140079Y0247084D01*
X0140124Y0247035D01*
X0140167Y0246984D01*
X0140207Y0246930D01*
X0140243Y0246875D01*
X0140277Y0246817D01*
X0140307Y0246757D01*
X0140333Y0246696D01*
X0140356Y0246633D01*
X0140375Y0246569D01*
X0140390Y0246505D01*
X0140401Y0246439D01*
X0140409Y0246373D01*
X0140413Y0246306D01*
X0140357Y0246306D01*
X0140353Y0246369D01*
X0140346Y0246432D01*
X0140335Y0246494D01*
X0140320Y0246556D01*
X0140302Y0246617D01*
X0140281Y0246676D01*
X0140256Y0246734D01*
X0140227Y0246791D01*
X0140196Y0246846D01*
X0140161Y0246899D01*
X0140123Y0246949D01*
X0140082Y0246998D01*
X0140039Y0247044D01*
X0139993Y0247087D01*
X0139944Y0247128D01*
X0139894Y0247166D01*
X0139841Y0247201D01*
X0139786Y0247232D01*
X0139729Y0247261D01*
X0139671Y0247286D01*
X0139612Y0247307D01*
X0139551Y0247325D01*
X0139489Y0247340D01*
X0139427Y0247351D01*
X0139364Y0247358D01*
X0139301Y0247362D01*
X0139301Y0247306D01*
X0139363Y0247302D01*
X0139425Y0247294D01*
X0139486Y0247283D01*
X0139547Y0247268D01*
X0139606Y0247250D01*
X0139665Y0247228D01*
X0139721Y0247202D01*
X0139777Y0247173D01*
X0139830Y0247141D01*
X0139881Y0247106D01*
X0139930Y0247067D01*
X0139977Y0247026D01*
X0140021Y0246982D01*
X0140062Y0246935D01*
X0140101Y0246886D01*
X0140136Y0246835D01*
X0140168Y0246782D01*
X0140197Y0246726D01*
X0140223Y0246670D01*
X0140245Y0246611D01*
X0140263Y0246552D01*
X0140278Y0246491D01*
X0140289Y0246430D01*
X0140297Y0246368D01*
X0140301Y0246306D01*
X0140245Y0246306D01*
X0140241Y0246367D01*
X0140233Y0246428D01*
X0140222Y0246488D01*
X0140206Y0246547D01*
X0140188Y0246606D01*
X0140165Y0246663D01*
X0140139Y0246718D01*
X0140109Y0246772D01*
X0140077Y0246823D01*
X0140041Y0246873D01*
X0140002Y0246920D01*
X0139960Y0246965D01*
X0139915Y0247007D01*
X0139868Y0247046D01*
X0139818Y0247082D01*
X0139767Y0247114D01*
X0139713Y0247144D01*
X0139658Y0247170D01*
X0139601Y0247193D01*
X0139542Y0247211D01*
X0139483Y0247227D01*
X0139423Y0247238D01*
X0139362Y0247246D01*
X0139301Y0247250D01*
X0139301Y0247194D01*
X0139358Y0247190D01*
X0139416Y0247183D01*
X0139472Y0247172D01*
X0139528Y0247157D01*
X0139583Y0247139D01*
X0139636Y0247118D01*
X0139688Y0247094D01*
X0139739Y0247066D01*
X0139787Y0247035D01*
X0139834Y0247001D01*
X0139878Y0246965D01*
X0139920Y0246925D01*
X0139960Y0246883D01*
X0139996Y0246839D01*
X0140030Y0246792D01*
X0140061Y0246744D01*
X0140089Y0246693D01*
X0140113Y0246641D01*
X0140134Y0246588D01*
X0140152Y0246533D01*
X0140167Y0246477D01*
X0140178Y0246421D01*
X0140185Y0246363D01*
X0140189Y0246306D01*
X0140132Y0246306D01*
X0140129Y0246362D01*
X0140121Y0246418D01*
X0140110Y0246473D01*
X0140096Y0246527D01*
X0140077Y0246581D01*
X0140056Y0246633D01*
X0140031Y0246683D01*
X0140003Y0246732D01*
X0139971Y0246778D01*
X0139937Y0246823D01*
X0139900Y0246865D01*
X0139860Y0246905D01*
X0139818Y0246942D01*
X0139773Y0246976D01*
X0139727Y0247008D01*
X0139678Y0247036D01*
X0139628Y0247061D01*
X0139576Y0247082D01*
X0139522Y0247101D01*
X0139468Y0247115D01*
X0139413Y0247126D01*
X0139357Y0247134D01*
X0139301Y0247137D01*
X0139301Y0247081D01*
X0139356Y0247078D01*
X0139410Y0247070D01*
X0139464Y0247059D01*
X0139516Y0247044D01*
X0139568Y0247025D01*
X0139618Y0247003D01*
X0139667Y0246978D01*
X0139714Y0246950D01*
X0139758Y0246918D01*
X0139801Y0246883D01*
X0139841Y0246846D01*
X0139878Y0246806D01*
X0139913Y0246763D01*
X0139945Y0246719D01*
X0139973Y0246672D01*
X0139998Y0246623D01*
X0140020Y0246573D01*
X0140039Y0246521D01*
X0140054Y0246469D01*
X0140065Y0246415D01*
X0140073Y0246361D01*
X0140076Y0246306D01*
X0140020Y0246306D01*
X0140016Y0246359D01*
X0140009Y0246412D01*
X0139997Y0246464D01*
X0139982Y0246515D01*
X0139963Y0246565D01*
X0139941Y0246613D01*
X0139915Y0246660D01*
X0139887Y0246704D01*
X0139855Y0246747D01*
X0139820Y0246787D01*
X0139782Y0246825D01*
X0139742Y0246860D01*
X0139699Y0246892D01*
X0139655Y0246920D01*
X0139608Y0246946D01*
X0139560Y0246968D01*
X0139510Y0246987D01*
X0139459Y0247002D01*
X0139407Y0247014D01*
X0139354Y0247021D01*
X0139301Y0247025D01*
X0139300Y0235298D02*
X0139300Y0235838D01*
X0139301Y0235838D02*
X0139354Y0235842D01*
X0139406Y0235850D01*
X0139458Y0235862D01*
X0139509Y0235878D01*
X0139558Y0235897D01*
X0139606Y0235920D01*
X0139652Y0235947D01*
X0139696Y0235977D01*
X0139737Y0236010D01*
X0139776Y0236046D01*
X0139812Y0236085D01*
X0139845Y0236126D01*
X0139875Y0236170D01*
X0139902Y0236216D01*
X0139925Y0236264D01*
X0139944Y0236313D01*
X0139960Y0236364D01*
X0139972Y0236416D01*
X0139980Y0236468D01*
X0139984Y0236521D01*
X0140524Y0236522D01*
X0140525Y0236521D01*
X0140521Y0236453D01*
X0140514Y0236385D01*
X0140503Y0236318D01*
X0140489Y0236251D01*
X0140471Y0236185D01*
X0140449Y0236121D01*
X0140424Y0236057D01*
X0140395Y0235995D01*
X0140363Y0235935D01*
X0140328Y0235877D01*
X0140290Y0235820D01*
X0140249Y0235766D01*
X0140205Y0235714D01*
X0140158Y0235664D01*
X0140108Y0235617D01*
X0140056Y0235573D01*
X0140002Y0235532D01*
X0139945Y0235494D01*
X0139887Y0235459D01*
X0139827Y0235427D01*
X0139765Y0235398D01*
X0139701Y0235373D01*
X0139637Y0235351D01*
X0139571Y0235333D01*
X0139504Y0235319D01*
X0139437Y0235308D01*
X0139369Y0235301D01*
X0139301Y0235297D01*
X0139301Y0235353D01*
X0139368Y0235357D01*
X0139435Y0235364D01*
X0139502Y0235375D01*
X0139568Y0235390D01*
X0139633Y0235409D01*
X0139696Y0235431D01*
X0139759Y0235457D01*
X0139820Y0235486D01*
X0139879Y0235519D01*
X0139936Y0235554D01*
X0139991Y0235593D01*
X0140044Y0235635D01*
X0140094Y0235680D01*
X0140142Y0235728D01*
X0140187Y0235778D01*
X0140229Y0235831D01*
X0140268Y0235886D01*
X0140303Y0235943D01*
X0140336Y0236002D01*
X0140365Y0236063D01*
X0140391Y0236126D01*
X0140413Y0236189D01*
X0140432Y0236254D01*
X0140447Y0236320D01*
X0140458Y0236387D01*
X0140465Y0236454D01*
X0140469Y0236521D01*
X0140413Y0236521D01*
X0140409Y0236454D01*
X0140401Y0236388D01*
X0140390Y0236322D01*
X0140375Y0236258D01*
X0140356Y0236194D01*
X0140333Y0236131D01*
X0140307Y0236070D01*
X0140277Y0236010D01*
X0140243Y0235952D01*
X0140207Y0235897D01*
X0140167Y0235843D01*
X0140124Y0235792D01*
X0140079Y0235743D01*
X0140030Y0235698D01*
X0139979Y0235655D01*
X0139925Y0235615D01*
X0139870Y0235579D01*
X0139812Y0235545D01*
X0139752Y0235515D01*
X0139691Y0235489D01*
X0139628Y0235466D01*
X0139564Y0235447D01*
X0139500Y0235432D01*
X0139434Y0235421D01*
X0139368Y0235413D01*
X0139301Y0235409D01*
X0139301Y0235465D01*
X0139364Y0235469D01*
X0139427Y0235476D01*
X0139489Y0235487D01*
X0139551Y0235502D01*
X0139612Y0235520D01*
X0139671Y0235541D01*
X0139729Y0235566D01*
X0139786Y0235595D01*
X0139841Y0235626D01*
X0139894Y0235661D01*
X0139944Y0235699D01*
X0139993Y0235740D01*
X0140039Y0235783D01*
X0140082Y0235829D01*
X0140123Y0235878D01*
X0140161Y0235928D01*
X0140196Y0235981D01*
X0140227Y0236036D01*
X0140256Y0236093D01*
X0140281Y0236151D01*
X0140302Y0236210D01*
X0140320Y0236271D01*
X0140335Y0236333D01*
X0140346Y0236395D01*
X0140353Y0236458D01*
X0140357Y0236521D01*
X0140301Y0236521D01*
X0140297Y0236459D01*
X0140289Y0236397D01*
X0140278Y0236336D01*
X0140263Y0236275D01*
X0140245Y0236216D01*
X0140223Y0236157D01*
X0140197Y0236101D01*
X0140168Y0236045D01*
X0140136Y0235992D01*
X0140101Y0235941D01*
X0140062Y0235892D01*
X0140021Y0235845D01*
X0139977Y0235801D01*
X0139930Y0235760D01*
X0139881Y0235721D01*
X0139830Y0235686D01*
X0139777Y0235654D01*
X0139721Y0235625D01*
X0139665Y0235599D01*
X0139606Y0235577D01*
X0139547Y0235559D01*
X0139486Y0235544D01*
X0139425Y0235533D01*
X0139363Y0235525D01*
X0139301Y0235521D01*
X0139301Y0235577D01*
X0139362Y0235581D01*
X0139423Y0235589D01*
X0139483Y0235600D01*
X0139542Y0235616D01*
X0139601Y0235634D01*
X0139658Y0235657D01*
X0139713Y0235683D01*
X0139767Y0235713D01*
X0139818Y0235745D01*
X0139868Y0235781D01*
X0139915Y0235820D01*
X0139960Y0235862D01*
X0140002Y0235907D01*
X0140041Y0235954D01*
X0140077Y0236004D01*
X0140109Y0236055D01*
X0140139Y0236109D01*
X0140165Y0236164D01*
X0140188Y0236221D01*
X0140206Y0236280D01*
X0140222Y0236339D01*
X0140233Y0236399D01*
X0140241Y0236460D01*
X0140245Y0236521D01*
X0140189Y0236521D01*
X0140185Y0236464D01*
X0140178Y0236406D01*
X0140167Y0236350D01*
X0140152Y0236294D01*
X0140134Y0236239D01*
X0140113Y0236186D01*
X0140089Y0236134D01*
X0140061Y0236083D01*
X0140030Y0236035D01*
X0139996Y0235988D01*
X0139960Y0235944D01*
X0139920Y0235902D01*
X0139878Y0235862D01*
X0139834Y0235826D01*
X0139787Y0235792D01*
X0139739Y0235761D01*
X0139688Y0235733D01*
X0139636Y0235709D01*
X0139583Y0235688D01*
X0139528Y0235670D01*
X0139472Y0235655D01*
X0139416Y0235644D01*
X0139358Y0235637D01*
X0139301Y0235633D01*
X0139301Y0235690D01*
X0139357Y0235693D01*
X0139413Y0235701D01*
X0139468Y0235712D01*
X0139522Y0235726D01*
X0139576Y0235745D01*
X0139628Y0235766D01*
X0139678Y0235791D01*
X0139727Y0235819D01*
X0139773Y0235851D01*
X0139818Y0235885D01*
X0139860Y0235922D01*
X0139900Y0235962D01*
X0139937Y0236004D01*
X0139971Y0236049D01*
X0140003Y0236095D01*
X0140031Y0236144D01*
X0140056Y0236194D01*
X0140077Y0236246D01*
X0140096Y0236300D01*
X0140110Y0236354D01*
X0140121Y0236409D01*
X0140129Y0236465D01*
X0140132Y0236521D01*
X0140076Y0236521D01*
X0140073Y0236466D01*
X0140065Y0236412D01*
X0140054Y0236358D01*
X0140039Y0236306D01*
X0140020Y0236254D01*
X0139998Y0236204D01*
X0139973Y0236155D01*
X0139945Y0236108D01*
X0139913Y0236064D01*
X0139878Y0236021D01*
X0139841Y0235981D01*
X0139801Y0235944D01*
X0139758Y0235909D01*
X0139714Y0235877D01*
X0139667Y0235849D01*
X0139618Y0235824D01*
X0139568Y0235802D01*
X0139516Y0235783D01*
X0139464Y0235768D01*
X0139410Y0235757D01*
X0139356Y0235749D01*
X0139301Y0235746D01*
X0139301Y0235802D01*
X0139354Y0235806D01*
X0139407Y0235813D01*
X0139459Y0235825D01*
X0139510Y0235840D01*
X0139560Y0235859D01*
X0139608Y0235881D01*
X0139655Y0235907D01*
X0139699Y0235935D01*
X0139742Y0235967D01*
X0139782Y0236002D01*
X0139820Y0236040D01*
X0139855Y0236080D01*
X0139887Y0236123D01*
X0139915Y0236167D01*
X0139941Y0236214D01*
X0139963Y0236262D01*
X0139982Y0236312D01*
X0139997Y0236363D01*
X0140009Y0236415D01*
X0140016Y0236468D01*
X0140020Y0236521D01*
D18*
X0135708Y0238874D02*
X0135710Y0238945D01*
X0135716Y0239016D01*
X0135726Y0239087D01*
X0135740Y0239156D01*
X0135757Y0239225D01*
X0135779Y0239293D01*
X0135804Y0239360D01*
X0135833Y0239425D01*
X0135865Y0239488D01*
X0135901Y0239550D01*
X0135940Y0239609D01*
X0135983Y0239666D01*
X0136028Y0239721D01*
X0136077Y0239773D01*
X0136128Y0239822D01*
X0136182Y0239868D01*
X0136239Y0239912D01*
X0136297Y0239952D01*
X0136358Y0239988D01*
X0136421Y0240022D01*
X0136486Y0240051D01*
X0136552Y0240077D01*
X0136620Y0240100D01*
X0136688Y0240118D01*
X0136758Y0240133D01*
X0136828Y0240144D01*
X0136899Y0240151D01*
X0136970Y0240154D01*
X0137041Y0240153D01*
X0137112Y0240148D01*
X0137183Y0240139D01*
X0137253Y0240126D01*
X0137322Y0240110D01*
X0137390Y0240089D01*
X0137457Y0240065D01*
X0137523Y0240037D01*
X0137586Y0240005D01*
X0137648Y0239970D01*
X0137708Y0239932D01*
X0137766Y0239890D01*
X0137821Y0239846D01*
X0137874Y0239798D01*
X0137924Y0239747D01*
X0137971Y0239694D01*
X0138015Y0239638D01*
X0138056Y0239580D01*
X0138094Y0239519D01*
X0138128Y0239457D01*
X0138158Y0239392D01*
X0138185Y0239327D01*
X0138209Y0239259D01*
X0138228Y0239191D01*
X0138244Y0239122D01*
X0138256Y0239051D01*
X0138264Y0238981D01*
X0138268Y0238910D01*
X0138268Y0238838D01*
X0138264Y0238767D01*
X0138256Y0238697D01*
X0138244Y0238626D01*
X0138228Y0238557D01*
X0138209Y0238489D01*
X0138185Y0238421D01*
X0138158Y0238356D01*
X0138128Y0238291D01*
X0138094Y0238229D01*
X0138056Y0238168D01*
X0138015Y0238110D01*
X0137971Y0238054D01*
X0137924Y0238001D01*
X0137874Y0237950D01*
X0137821Y0237902D01*
X0137766Y0237858D01*
X0137708Y0237816D01*
X0137648Y0237778D01*
X0137586Y0237743D01*
X0137523Y0237711D01*
X0137457Y0237683D01*
X0137390Y0237659D01*
X0137322Y0237638D01*
X0137253Y0237622D01*
X0137183Y0237609D01*
X0137112Y0237600D01*
X0137041Y0237595D01*
X0136970Y0237594D01*
X0136899Y0237597D01*
X0136828Y0237604D01*
X0136758Y0237615D01*
X0136688Y0237630D01*
X0136620Y0237648D01*
X0136552Y0237671D01*
X0136486Y0237697D01*
X0136421Y0237726D01*
X0136358Y0237760D01*
X0136297Y0237796D01*
X0136239Y0237836D01*
X0136182Y0237880D01*
X0136128Y0237926D01*
X0136077Y0237975D01*
X0136028Y0238027D01*
X0135983Y0238082D01*
X0135940Y0238139D01*
X0135901Y0238198D01*
X0135865Y0238260D01*
X0135833Y0238323D01*
X0135804Y0238388D01*
X0135779Y0238455D01*
X0135757Y0238523D01*
X0135740Y0238592D01*
X0135726Y0238661D01*
X0135716Y0238732D01*
X0135710Y0238803D01*
X0135708Y0238874D01*
D19*
X0144478Y0237956D02*
X0144729Y0237956D01*
X0145730Y0238957D01*
X0145980Y0238957D01*
X0145980Y0237956D01*
X0145980Y0237484D02*
X0144729Y0237484D01*
X0144478Y0237234D01*
X0144478Y0236733D01*
X0144729Y0236483D01*
X0145980Y0236483D01*
M02*
