G75*
%MOIN*%
%OFA0B0*%
%FSLAX25Y25*%
%IPPOS*%
%LPD*%
%AMOC8*
5,1,8,0,0,1.08239X$1,22.5*
%
%ADD10C,0.00000*%
D10*
X0049428Y0028933D02*
X0197066Y0028933D01*
X0197066Y0184445D01*
X0295491Y0184445D01*
X0295491Y0028933D01*
X0443129Y0028933D01*
X0443129Y0346059D01*
X0049428Y0346059D01*
X0049428Y0028933D01*
X0068484Y0037280D02*
X0068486Y0037373D01*
X0068492Y0037465D01*
X0068502Y0037557D01*
X0068516Y0037648D01*
X0068533Y0037739D01*
X0068555Y0037829D01*
X0068580Y0037918D01*
X0068609Y0038006D01*
X0068642Y0038092D01*
X0068679Y0038177D01*
X0068719Y0038261D01*
X0068763Y0038342D01*
X0068810Y0038422D01*
X0068860Y0038500D01*
X0068914Y0038575D01*
X0068971Y0038648D01*
X0069031Y0038718D01*
X0069094Y0038786D01*
X0069160Y0038851D01*
X0069228Y0038913D01*
X0069299Y0038973D01*
X0069373Y0039029D01*
X0069449Y0039082D01*
X0069527Y0039131D01*
X0069607Y0039178D01*
X0069689Y0039220D01*
X0069773Y0039260D01*
X0069858Y0039295D01*
X0069945Y0039327D01*
X0070033Y0039356D01*
X0070122Y0039380D01*
X0070212Y0039401D01*
X0070303Y0039417D01*
X0070395Y0039430D01*
X0070487Y0039439D01*
X0070580Y0039444D01*
X0070672Y0039445D01*
X0070765Y0039442D01*
X0070857Y0039435D01*
X0070949Y0039424D01*
X0071040Y0039409D01*
X0071131Y0039391D01*
X0071221Y0039368D01*
X0071309Y0039342D01*
X0071397Y0039312D01*
X0071483Y0039278D01*
X0071567Y0039241D01*
X0071650Y0039199D01*
X0071731Y0039155D01*
X0071811Y0039107D01*
X0071888Y0039056D01*
X0071962Y0039001D01*
X0072035Y0038943D01*
X0072105Y0038883D01*
X0072172Y0038819D01*
X0072236Y0038753D01*
X0072298Y0038683D01*
X0072356Y0038612D01*
X0072411Y0038538D01*
X0072463Y0038461D01*
X0072512Y0038382D01*
X0072558Y0038302D01*
X0072600Y0038219D01*
X0072638Y0038135D01*
X0072673Y0038049D01*
X0072704Y0037962D01*
X0072731Y0037874D01*
X0072754Y0037784D01*
X0072774Y0037694D01*
X0072790Y0037603D01*
X0072802Y0037511D01*
X0072810Y0037419D01*
X0072814Y0037326D01*
X0072814Y0037234D01*
X0072810Y0037141D01*
X0072802Y0037049D01*
X0072790Y0036957D01*
X0072774Y0036866D01*
X0072754Y0036776D01*
X0072731Y0036686D01*
X0072704Y0036598D01*
X0072673Y0036511D01*
X0072638Y0036425D01*
X0072600Y0036341D01*
X0072558Y0036258D01*
X0072512Y0036178D01*
X0072463Y0036099D01*
X0072411Y0036022D01*
X0072356Y0035948D01*
X0072298Y0035877D01*
X0072236Y0035807D01*
X0072172Y0035741D01*
X0072105Y0035677D01*
X0072035Y0035617D01*
X0071962Y0035559D01*
X0071888Y0035504D01*
X0071811Y0035453D01*
X0071732Y0035405D01*
X0071650Y0035361D01*
X0071567Y0035319D01*
X0071483Y0035282D01*
X0071397Y0035248D01*
X0071309Y0035218D01*
X0071221Y0035192D01*
X0071131Y0035169D01*
X0071040Y0035151D01*
X0070949Y0035136D01*
X0070857Y0035125D01*
X0070765Y0035118D01*
X0070672Y0035115D01*
X0070580Y0035116D01*
X0070487Y0035121D01*
X0070395Y0035130D01*
X0070303Y0035143D01*
X0070212Y0035159D01*
X0070122Y0035180D01*
X0070033Y0035204D01*
X0069945Y0035233D01*
X0069858Y0035265D01*
X0069773Y0035300D01*
X0069689Y0035340D01*
X0069607Y0035382D01*
X0069527Y0035429D01*
X0069449Y0035478D01*
X0069373Y0035531D01*
X0069299Y0035587D01*
X0069228Y0035647D01*
X0069160Y0035709D01*
X0069094Y0035774D01*
X0069031Y0035842D01*
X0068971Y0035912D01*
X0068914Y0035985D01*
X0068860Y0036060D01*
X0068810Y0036138D01*
X0068763Y0036218D01*
X0068719Y0036299D01*
X0068679Y0036383D01*
X0068642Y0036468D01*
X0068609Y0036554D01*
X0068580Y0036642D01*
X0068555Y0036731D01*
X0068533Y0036821D01*
X0068516Y0036912D01*
X0068502Y0037003D01*
X0068492Y0037095D01*
X0068486Y0037187D01*
X0068484Y0037280D01*
X0068484Y0056965D02*
X0068486Y0057058D01*
X0068492Y0057150D01*
X0068502Y0057242D01*
X0068516Y0057333D01*
X0068533Y0057424D01*
X0068555Y0057514D01*
X0068580Y0057603D01*
X0068609Y0057691D01*
X0068642Y0057777D01*
X0068679Y0057862D01*
X0068719Y0057946D01*
X0068763Y0058027D01*
X0068810Y0058107D01*
X0068860Y0058185D01*
X0068914Y0058260D01*
X0068971Y0058333D01*
X0069031Y0058403D01*
X0069094Y0058471D01*
X0069160Y0058536D01*
X0069228Y0058598D01*
X0069299Y0058658D01*
X0069373Y0058714D01*
X0069449Y0058767D01*
X0069527Y0058816D01*
X0069607Y0058863D01*
X0069689Y0058905D01*
X0069773Y0058945D01*
X0069858Y0058980D01*
X0069945Y0059012D01*
X0070033Y0059041D01*
X0070122Y0059065D01*
X0070212Y0059086D01*
X0070303Y0059102D01*
X0070395Y0059115D01*
X0070487Y0059124D01*
X0070580Y0059129D01*
X0070672Y0059130D01*
X0070765Y0059127D01*
X0070857Y0059120D01*
X0070949Y0059109D01*
X0071040Y0059094D01*
X0071131Y0059076D01*
X0071221Y0059053D01*
X0071309Y0059027D01*
X0071397Y0058997D01*
X0071483Y0058963D01*
X0071567Y0058926D01*
X0071650Y0058884D01*
X0071731Y0058840D01*
X0071811Y0058792D01*
X0071888Y0058741D01*
X0071962Y0058686D01*
X0072035Y0058628D01*
X0072105Y0058568D01*
X0072172Y0058504D01*
X0072236Y0058438D01*
X0072298Y0058368D01*
X0072356Y0058297D01*
X0072411Y0058223D01*
X0072463Y0058146D01*
X0072512Y0058067D01*
X0072558Y0057987D01*
X0072600Y0057904D01*
X0072638Y0057820D01*
X0072673Y0057734D01*
X0072704Y0057647D01*
X0072731Y0057559D01*
X0072754Y0057469D01*
X0072774Y0057379D01*
X0072790Y0057288D01*
X0072802Y0057196D01*
X0072810Y0057104D01*
X0072814Y0057011D01*
X0072814Y0056919D01*
X0072810Y0056826D01*
X0072802Y0056734D01*
X0072790Y0056642D01*
X0072774Y0056551D01*
X0072754Y0056461D01*
X0072731Y0056371D01*
X0072704Y0056283D01*
X0072673Y0056196D01*
X0072638Y0056110D01*
X0072600Y0056026D01*
X0072558Y0055943D01*
X0072512Y0055863D01*
X0072463Y0055784D01*
X0072411Y0055707D01*
X0072356Y0055633D01*
X0072298Y0055562D01*
X0072236Y0055492D01*
X0072172Y0055426D01*
X0072105Y0055362D01*
X0072035Y0055302D01*
X0071962Y0055244D01*
X0071888Y0055189D01*
X0071811Y0055138D01*
X0071732Y0055090D01*
X0071650Y0055046D01*
X0071567Y0055004D01*
X0071483Y0054967D01*
X0071397Y0054933D01*
X0071309Y0054903D01*
X0071221Y0054877D01*
X0071131Y0054854D01*
X0071040Y0054836D01*
X0070949Y0054821D01*
X0070857Y0054810D01*
X0070765Y0054803D01*
X0070672Y0054800D01*
X0070580Y0054801D01*
X0070487Y0054806D01*
X0070395Y0054815D01*
X0070303Y0054828D01*
X0070212Y0054844D01*
X0070122Y0054865D01*
X0070033Y0054889D01*
X0069945Y0054918D01*
X0069858Y0054950D01*
X0069773Y0054985D01*
X0069689Y0055025D01*
X0069607Y0055067D01*
X0069527Y0055114D01*
X0069449Y0055163D01*
X0069373Y0055216D01*
X0069299Y0055272D01*
X0069228Y0055332D01*
X0069160Y0055394D01*
X0069094Y0055459D01*
X0069031Y0055527D01*
X0068971Y0055597D01*
X0068914Y0055670D01*
X0068860Y0055745D01*
X0068810Y0055823D01*
X0068763Y0055903D01*
X0068719Y0055984D01*
X0068679Y0056068D01*
X0068642Y0056153D01*
X0068609Y0056239D01*
X0068580Y0056327D01*
X0068555Y0056416D01*
X0068533Y0056506D01*
X0068516Y0056597D01*
X0068502Y0056688D01*
X0068492Y0056780D01*
X0068486Y0056872D01*
X0068484Y0056965D01*
X0063208Y0095862D02*
X0063210Y0096015D01*
X0063216Y0096169D01*
X0063226Y0096322D01*
X0063240Y0096474D01*
X0063258Y0096627D01*
X0063280Y0096778D01*
X0063305Y0096929D01*
X0063335Y0097080D01*
X0063369Y0097230D01*
X0063406Y0097378D01*
X0063447Y0097526D01*
X0063492Y0097672D01*
X0063541Y0097818D01*
X0063594Y0097962D01*
X0063650Y0098104D01*
X0063710Y0098245D01*
X0063774Y0098385D01*
X0063841Y0098523D01*
X0063912Y0098659D01*
X0063987Y0098793D01*
X0064064Y0098925D01*
X0064146Y0099055D01*
X0064230Y0099183D01*
X0064318Y0099309D01*
X0064409Y0099432D01*
X0064503Y0099553D01*
X0064601Y0099671D01*
X0064701Y0099787D01*
X0064805Y0099900D01*
X0064911Y0100011D01*
X0065020Y0100119D01*
X0065132Y0100224D01*
X0065246Y0100325D01*
X0065364Y0100424D01*
X0065483Y0100520D01*
X0065605Y0100613D01*
X0065730Y0100702D01*
X0065857Y0100789D01*
X0065986Y0100871D01*
X0066117Y0100951D01*
X0066250Y0101027D01*
X0066385Y0101100D01*
X0066522Y0101169D01*
X0066661Y0101234D01*
X0066801Y0101296D01*
X0066943Y0101354D01*
X0067086Y0101409D01*
X0067231Y0101460D01*
X0067377Y0101507D01*
X0067524Y0101550D01*
X0067672Y0101589D01*
X0067821Y0101625D01*
X0067971Y0101656D01*
X0068122Y0101684D01*
X0068273Y0101708D01*
X0068426Y0101728D01*
X0068578Y0101744D01*
X0068731Y0101756D01*
X0068884Y0101764D01*
X0069037Y0101768D01*
X0069191Y0101768D01*
X0069344Y0101764D01*
X0069497Y0101756D01*
X0069650Y0101744D01*
X0069802Y0101728D01*
X0069955Y0101708D01*
X0070106Y0101684D01*
X0070257Y0101656D01*
X0070407Y0101625D01*
X0070556Y0101589D01*
X0070704Y0101550D01*
X0070851Y0101507D01*
X0070997Y0101460D01*
X0071142Y0101409D01*
X0071285Y0101354D01*
X0071427Y0101296D01*
X0071567Y0101234D01*
X0071706Y0101169D01*
X0071843Y0101100D01*
X0071978Y0101027D01*
X0072111Y0100951D01*
X0072242Y0100871D01*
X0072371Y0100789D01*
X0072498Y0100702D01*
X0072623Y0100613D01*
X0072745Y0100520D01*
X0072864Y0100424D01*
X0072982Y0100325D01*
X0073096Y0100224D01*
X0073208Y0100119D01*
X0073317Y0100011D01*
X0073423Y0099900D01*
X0073527Y0099787D01*
X0073627Y0099671D01*
X0073725Y0099553D01*
X0073819Y0099432D01*
X0073910Y0099309D01*
X0073998Y0099183D01*
X0074082Y0099055D01*
X0074164Y0098925D01*
X0074241Y0098793D01*
X0074316Y0098659D01*
X0074387Y0098523D01*
X0074454Y0098385D01*
X0074518Y0098245D01*
X0074578Y0098104D01*
X0074634Y0097962D01*
X0074687Y0097818D01*
X0074736Y0097672D01*
X0074781Y0097526D01*
X0074822Y0097378D01*
X0074859Y0097230D01*
X0074893Y0097080D01*
X0074923Y0096929D01*
X0074948Y0096778D01*
X0074970Y0096627D01*
X0074988Y0096474D01*
X0075002Y0096322D01*
X0075012Y0096169D01*
X0075018Y0096015D01*
X0075020Y0095862D01*
X0075018Y0095709D01*
X0075012Y0095555D01*
X0075002Y0095402D01*
X0074988Y0095250D01*
X0074970Y0095097D01*
X0074948Y0094946D01*
X0074923Y0094795D01*
X0074893Y0094644D01*
X0074859Y0094494D01*
X0074822Y0094346D01*
X0074781Y0094198D01*
X0074736Y0094052D01*
X0074687Y0093906D01*
X0074634Y0093762D01*
X0074578Y0093620D01*
X0074518Y0093479D01*
X0074454Y0093339D01*
X0074387Y0093201D01*
X0074316Y0093065D01*
X0074241Y0092931D01*
X0074164Y0092799D01*
X0074082Y0092669D01*
X0073998Y0092541D01*
X0073910Y0092415D01*
X0073819Y0092292D01*
X0073725Y0092171D01*
X0073627Y0092053D01*
X0073527Y0091937D01*
X0073423Y0091824D01*
X0073317Y0091713D01*
X0073208Y0091605D01*
X0073096Y0091500D01*
X0072982Y0091399D01*
X0072864Y0091300D01*
X0072745Y0091204D01*
X0072623Y0091111D01*
X0072498Y0091022D01*
X0072371Y0090935D01*
X0072242Y0090853D01*
X0072111Y0090773D01*
X0071978Y0090697D01*
X0071843Y0090624D01*
X0071706Y0090555D01*
X0071567Y0090490D01*
X0071427Y0090428D01*
X0071285Y0090370D01*
X0071142Y0090315D01*
X0070997Y0090264D01*
X0070851Y0090217D01*
X0070704Y0090174D01*
X0070556Y0090135D01*
X0070407Y0090099D01*
X0070257Y0090068D01*
X0070106Y0090040D01*
X0069955Y0090016D01*
X0069802Y0089996D01*
X0069650Y0089980D01*
X0069497Y0089968D01*
X0069344Y0089960D01*
X0069191Y0089956D01*
X0069037Y0089956D01*
X0068884Y0089960D01*
X0068731Y0089968D01*
X0068578Y0089980D01*
X0068426Y0089996D01*
X0068273Y0090016D01*
X0068122Y0090040D01*
X0067971Y0090068D01*
X0067821Y0090099D01*
X0067672Y0090135D01*
X0067524Y0090174D01*
X0067377Y0090217D01*
X0067231Y0090264D01*
X0067086Y0090315D01*
X0066943Y0090370D01*
X0066801Y0090428D01*
X0066661Y0090490D01*
X0066522Y0090555D01*
X0066385Y0090624D01*
X0066250Y0090697D01*
X0066117Y0090773D01*
X0065986Y0090853D01*
X0065857Y0090935D01*
X0065730Y0091022D01*
X0065605Y0091111D01*
X0065483Y0091204D01*
X0065364Y0091300D01*
X0065246Y0091399D01*
X0065132Y0091500D01*
X0065020Y0091605D01*
X0064911Y0091713D01*
X0064805Y0091824D01*
X0064701Y0091937D01*
X0064601Y0092053D01*
X0064503Y0092171D01*
X0064409Y0092292D01*
X0064318Y0092415D01*
X0064230Y0092541D01*
X0064146Y0092669D01*
X0064064Y0092799D01*
X0063987Y0092931D01*
X0063912Y0093065D01*
X0063841Y0093201D01*
X0063774Y0093339D01*
X0063710Y0093479D01*
X0063650Y0093620D01*
X0063594Y0093762D01*
X0063541Y0093906D01*
X0063492Y0094052D01*
X0063447Y0094198D01*
X0063406Y0094346D01*
X0063369Y0094494D01*
X0063335Y0094644D01*
X0063305Y0094795D01*
X0063280Y0094946D01*
X0063258Y0095097D01*
X0063240Y0095250D01*
X0063226Y0095402D01*
X0063216Y0095555D01*
X0063210Y0095709D01*
X0063208Y0095862D01*
X0063208Y0233657D02*
X0063210Y0233810D01*
X0063216Y0233964D01*
X0063226Y0234117D01*
X0063240Y0234269D01*
X0063258Y0234422D01*
X0063280Y0234573D01*
X0063305Y0234724D01*
X0063335Y0234875D01*
X0063369Y0235025D01*
X0063406Y0235173D01*
X0063447Y0235321D01*
X0063492Y0235467D01*
X0063541Y0235613D01*
X0063594Y0235757D01*
X0063650Y0235899D01*
X0063710Y0236040D01*
X0063774Y0236180D01*
X0063841Y0236318D01*
X0063912Y0236454D01*
X0063987Y0236588D01*
X0064064Y0236720D01*
X0064146Y0236850D01*
X0064230Y0236978D01*
X0064318Y0237104D01*
X0064409Y0237227D01*
X0064503Y0237348D01*
X0064601Y0237466D01*
X0064701Y0237582D01*
X0064805Y0237695D01*
X0064911Y0237806D01*
X0065020Y0237914D01*
X0065132Y0238019D01*
X0065246Y0238120D01*
X0065364Y0238219D01*
X0065483Y0238315D01*
X0065605Y0238408D01*
X0065730Y0238497D01*
X0065857Y0238584D01*
X0065986Y0238666D01*
X0066117Y0238746D01*
X0066250Y0238822D01*
X0066385Y0238895D01*
X0066522Y0238964D01*
X0066661Y0239029D01*
X0066801Y0239091D01*
X0066943Y0239149D01*
X0067086Y0239204D01*
X0067231Y0239255D01*
X0067377Y0239302D01*
X0067524Y0239345D01*
X0067672Y0239384D01*
X0067821Y0239420D01*
X0067971Y0239451D01*
X0068122Y0239479D01*
X0068273Y0239503D01*
X0068426Y0239523D01*
X0068578Y0239539D01*
X0068731Y0239551D01*
X0068884Y0239559D01*
X0069037Y0239563D01*
X0069191Y0239563D01*
X0069344Y0239559D01*
X0069497Y0239551D01*
X0069650Y0239539D01*
X0069802Y0239523D01*
X0069955Y0239503D01*
X0070106Y0239479D01*
X0070257Y0239451D01*
X0070407Y0239420D01*
X0070556Y0239384D01*
X0070704Y0239345D01*
X0070851Y0239302D01*
X0070997Y0239255D01*
X0071142Y0239204D01*
X0071285Y0239149D01*
X0071427Y0239091D01*
X0071567Y0239029D01*
X0071706Y0238964D01*
X0071843Y0238895D01*
X0071978Y0238822D01*
X0072111Y0238746D01*
X0072242Y0238666D01*
X0072371Y0238584D01*
X0072498Y0238497D01*
X0072623Y0238408D01*
X0072745Y0238315D01*
X0072864Y0238219D01*
X0072982Y0238120D01*
X0073096Y0238019D01*
X0073208Y0237914D01*
X0073317Y0237806D01*
X0073423Y0237695D01*
X0073527Y0237582D01*
X0073627Y0237466D01*
X0073725Y0237348D01*
X0073819Y0237227D01*
X0073910Y0237104D01*
X0073998Y0236978D01*
X0074082Y0236850D01*
X0074164Y0236720D01*
X0074241Y0236588D01*
X0074316Y0236454D01*
X0074387Y0236318D01*
X0074454Y0236180D01*
X0074518Y0236040D01*
X0074578Y0235899D01*
X0074634Y0235757D01*
X0074687Y0235613D01*
X0074736Y0235467D01*
X0074781Y0235321D01*
X0074822Y0235173D01*
X0074859Y0235025D01*
X0074893Y0234875D01*
X0074923Y0234724D01*
X0074948Y0234573D01*
X0074970Y0234422D01*
X0074988Y0234269D01*
X0075002Y0234117D01*
X0075012Y0233964D01*
X0075018Y0233810D01*
X0075020Y0233657D01*
X0075018Y0233504D01*
X0075012Y0233350D01*
X0075002Y0233197D01*
X0074988Y0233045D01*
X0074970Y0232892D01*
X0074948Y0232741D01*
X0074923Y0232590D01*
X0074893Y0232439D01*
X0074859Y0232289D01*
X0074822Y0232141D01*
X0074781Y0231993D01*
X0074736Y0231847D01*
X0074687Y0231701D01*
X0074634Y0231557D01*
X0074578Y0231415D01*
X0074518Y0231274D01*
X0074454Y0231134D01*
X0074387Y0230996D01*
X0074316Y0230860D01*
X0074241Y0230726D01*
X0074164Y0230594D01*
X0074082Y0230464D01*
X0073998Y0230336D01*
X0073910Y0230210D01*
X0073819Y0230087D01*
X0073725Y0229966D01*
X0073627Y0229848D01*
X0073527Y0229732D01*
X0073423Y0229619D01*
X0073317Y0229508D01*
X0073208Y0229400D01*
X0073096Y0229295D01*
X0072982Y0229194D01*
X0072864Y0229095D01*
X0072745Y0228999D01*
X0072623Y0228906D01*
X0072498Y0228817D01*
X0072371Y0228730D01*
X0072242Y0228648D01*
X0072111Y0228568D01*
X0071978Y0228492D01*
X0071843Y0228419D01*
X0071706Y0228350D01*
X0071567Y0228285D01*
X0071427Y0228223D01*
X0071285Y0228165D01*
X0071142Y0228110D01*
X0070997Y0228059D01*
X0070851Y0228012D01*
X0070704Y0227969D01*
X0070556Y0227930D01*
X0070407Y0227894D01*
X0070257Y0227863D01*
X0070106Y0227835D01*
X0069955Y0227811D01*
X0069802Y0227791D01*
X0069650Y0227775D01*
X0069497Y0227763D01*
X0069344Y0227755D01*
X0069191Y0227751D01*
X0069037Y0227751D01*
X0068884Y0227755D01*
X0068731Y0227763D01*
X0068578Y0227775D01*
X0068426Y0227791D01*
X0068273Y0227811D01*
X0068122Y0227835D01*
X0067971Y0227863D01*
X0067821Y0227894D01*
X0067672Y0227930D01*
X0067524Y0227969D01*
X0067377Y0228012D01*
X0067231Y0228059D01*
X0067086Y0228110D01*
X0066943Y0228165D01*
X0066801Y0228223D01*
X0066661Y0228285D01*
X0066522Y0228350D01*
X0066385Y0228419D01*
X0066250Y0228492D01*
X0066117Y0228568D01*
X0065986Y0228648D01*
X0065857Y0228730D01*
X0065730Y0228817D01*
X0065605Y0228906D01*
X0065483Y0228999D01*
X0065364Y0229095D01*
X0065246Y0229194D01*
X0065132Y0229295D01*
X0065020Y0229400D01*
X0064911Y0229508D01*
X0064805Y0229619D01*
X0064701Y0229732D01*
X0064601Y0229848D01*
X0064503Y0229966D01*
X0064409Y0230087D01*
X0064318Y0230210D01*
X0064230Y0230336D01*
X0064146Y0230464D01*
X0064064Y0230594D01*
X0063987Y0230726D01*
X0063912Y0230860D01*
X0063841Y0230996D01*
X0063774Y0231134D01*
X0063710Y0231274D01*
X0063650Y0231415D01*
X0063594Y0231557D01*
X0063541Y0231701D01*
X0063492Y0231847D01*
X0063447Y0231993D01*
X0063406Y0232141D01*
X0063369Y0232289D01*
X0063335Y0232439D01*
X0063305Y0232590D01*
X0063280Y0232741D01*
X0063258Y0232892D01*
X0063240Y0233045D01*
X0063226Y0233197D01*
X0063216Y0233350D01*
X0063210Y0233504D01*
X0063208Y0233657D01*
X0220188Y0315107D02*
X0220190Y0315232D01*
X0220196Y0315357D01*
X0220206Y0315481D01*
X0220220Y0315605D01*
X0220237Y0315729D01*
X0220259Y0315852D01*
X0220285Y0315974D01*
X0220314Y0316096D01*
X0220347Y0316216D01*
X0220385Y0316335D01*
X0220425Y0316454D01*
X0220470Y0316570D01*
X0220518Y0316685D01*
X0220570Y0316799D01*
X0220626Y0316911D01*
X0220685Y0317021D01*
X0220747Y0317129D01*
X0220813Y0317236D01*
X0220882Y0317340D01*
X0220955Y0317441D01*
X0221030Y0317541D01*
X0221109Y0317638D01*
X0221191Y0317732D01*
X0221276Y0317824D01*
X0221363Y0317913D01*
X0221454Y0317999D01*
X0221547Y0318082D01*
X0221643Y0318163D01*
X0221741Y0318240D01*
X0221841Y0318314D01*
X0221944Y0318385D01*
X0222049Y0318452D01*
X0222157Y0318517D01*
X0222266Y0318577D01*
X0222377Y0318635D01*
X0222490Y0318688D01*
X0222604Y0318738D01*
X0222720Y0318785D01*
X0222837Y0318827D01*
X0222956Y0318866D01*
X0223076Y0318902D01*
X0223197Y0318933D01*
X0223319Y0318961D01*
X0223441Y0318984D01*
X0223565Y0319004D01*
X0223689Y0319020D01*
X0223813Y0319032D01*
X0223938Y0319040D01*
X0224063Y0319044D01*
X0224187Y0319044D01*
X0224312Y0319040D01*
X0224437Y0319032D01*
X0224561Y0319020D01*
X0224685Y0319004D01*
X0224809Y0318984D01*
X0224931Y0318961D01*
X0225053Y0318933D01*
X0225174Y0318902D01*
X0225294Y0318866D01*
X0225413Y0318827D01*
X0225530Y0318785D01*
X0225646Y0318738D01*
X0225760Y0318688D01*
X0225873Y0318635D01*
X0225984Y0318577D01*
X0226094Y0318517D01*
X0226201Y0318452D01*
X0226306Y0318385D01*
X0226409Y0318314D01*
X0226509Y0318240D01*
X0226607Y0318163D01*
X0226703Y0318082D01*
X0226796Y0317999D01*
X0226887Y0317913D01*
X0226974Y0317824D01*
X0227059Y0317732D01*
X0227141Y0317638D01*
X0227220Y0317541D01*
X0227295Y0317441D01*
X0227368Y0317340D01*
X0227437Y0317236D01*
X0227503Y0317129D01*
X0227565Y0317021D01*
X0227624Y0316911D01*
X0227680Y0316799D01*
X0227732Y0316685D01*
X0227780Y0316570D01*
X0227825Y0316454D01*
X0227865Y0316335D01*
X0227903Y0316216D01*
X0227936Y0316096D01*
X0227965Y0315974D01*
X0227991Y0315852D01*
X0228013Y0315729D01*
X0228030Y0315605D01*
X0228044Y0315481D01*
X0228054Y0315357D01*
X0228060Y0315232D01*
X0228062Y0315107D01*
X0228060Y0314982D01*
X0228054Y0314857D01*
X0228044Y0314733D01*
X0228030Y0314609D01*
X0228013Y0314485D01*
X0227991Y0314362D01*
X0227965Y0314240D01*
X0227936Y0314118D01*
X0227903Y0313998D01*
X0227865Y0313879D01*
X0227825Y0313760D01*
X0227780Y0313644D01*
X0227732Y0313529D01*
X0227680Y0313415D01*
X0227624Y0313303D01*
X0227565Y0313193D01*
X0227503Y0313085D01*
X0227437Y0312978D01*
X0227368Y0312874D01*
X0227295Y0312773D01*
X0227220Y0312673D01*
X0227141Y0312576D01*
X0227059Y0312482D01*
X0226974Y0312390D01*
X0226887Y0312301D01*
X0226796Y0312215D01*
X0226703Y0312132D01*
X0226607Y0312051D01*
X0226509Y0311974D01*
X0226409Y0311900D01*
X0226306Y0311829D01*
X0226201Y0311762D01*
X0226093Y0311697D01*
X0225984Y0311637D01*
X0225873Y0311579D01*
X0225760Y0311526D01*
X0225646Y0311476D01*
X0225530Y0311429D01*
X0225413Y0311387D01*
X0225294Y0311348D01*
X0225174Y0311312D01*
X0225053Y0311281D01*
X0224931Y0311253D01*
X0224809Y0311230D01*
X0224685Y0311210D01*
X0224561Y0311194D01*
X0224437Y0311182D01*
X0224312Y0311174D01*
X0224187Y0311170D01*
X0224063Y0311170D01*
X0223938Y0311174D01*
X0223813Y0311182D01*
X0223689Y0311194D01*
X0223565Y0311210D01*
X0223441Y0311230D01*
X0223319Y0311253D01*
X0223197Y0311281D01*
X0223076Y0311312D01*
X0222956Y0311348D01*
X0222837Y0311387D01*
X0222720Y0311429D01*
X0222604Y0311476D01*
X0222490Y0311526D01*
X0222377Y0311579D01*
X0222266Y0311637D01*
X0222156Y0311697D01*
X0222049Y0311762D01*
X0221944Y0311829D01*
X0221841Y0311900D01*
X0221741Y0311974D01*
X0221643Y0312051D01*
X0221547Y0312132D01*
X0221454Y0312215D01*
X0221363Y0312301D01*
X0221276Y0312390D01*
X0221191Y0312482D01*
X0221109Y0312576D01*
X0221030Y0312673D01*
X0220955Y0312773D01*
X0220882Y0312874D01*
X0220813Y0312978D01*
X0220747Y0313085D01*
X0220685Y0313193D01*
X0220626Y0313303D01*
X0220570Y0313415D01*
X0220518Y0313529D01*
X0220470Y0313644D01*
X0220425Y0313760D01*
X0220385Y0313879D01*
X0220347Y0313998D01*
X0220314Y0314118D01*
X0220285Y0314240D01*
X0220259Y0314362D01*
X0220237Y0314485D01*
X0220220Y0314609D01*
X0220206Y0314733D01*
X0220196Y0314857D01*
X0220190Y0314982D01*
X0220188Y0315107D01*
X0333140Y0234005D02*
X0333142Y0234130D01*
X0333148Y0234255D01*
X0333158Y0234379D01*
X0333172Y0234503D01*
X0333189Y0234627D01*
X0333211Y0234750D01*
X0333237Y0234872D01*
X0333266Y0234994D01*
X0333299Y0235114D01*
X0333337Y0235233D01*
X0333377Y0235352D01*
X0333422Y0235468D01*
X0333470Y0235583D01*
X0333522Y0235697D01*
X0333578Y0235809D01*
X0333637Y0235919D01*
X0333699Y0236027D01*
X0333765Y0236134D01*
X0333834Y0236238D01*
X0333907Y0236339D01*
X0333982Y0236439D01*
X0334061Y0236536D01*
X0334143Y0236630D01*
X0334228Y0236722D01*
X0334315Y0236811D01*
X0334406Y0236897D01*
X0334499Y0236980D01*
X0334595Y0237061D01*
X0334693Y0237138D01*
X0334793Y0237212D01*
X0334896Y0237283D01*
X0335001Y0237350D01*
X0335109Y0237415D01*
X0335218Y0237475D01*
X0335329Y0237533D01*
X0335442Y0237586D01*
X0335556Y0237636D01*
X0335672Y0237683D01*
X0335789Y0237725D01*
X0335908Y0237764D01*
X0336028Y0237800D01*
X0336149Y0237831D01*
X0336271Y0237859D01*
X0336393Y0237882D01*
X0336517Y0237902D01*
X0336641Y0237918D01*
X0336765Y0237930D01*
X0336890Y0237938D01*
X0337015Y0237942D01*
X0337139Y0237942D01*
X0337264Y0237938D01*
X0337389Y0237930D01*
X0337513Y0237918D01*
X0337637Y0237902D01*
X0337761Y0237882D01*
X0337883Y0237859D01*
X0338005Y0237831D01*
X0338126Y0237800D01*
X0338246Y0237764D01*
X0338365Y0237725D01*
X0338482Y0237683D01*
X0338598Y0237636D01*
X0338712Y0237586D01*
X0338825Y0237533D01*
X0338936Y0237475D01*
X0339046Y0237415D01*
X0339153Y0237350D01*
X0339258Y0237283D01*
X0339361Y0237212D01*
X0339461Y0237138D01*
X0339559Y0237061D01*
X0339655Y0236980D01*
X0339748Y0236897D01*
X0339839Y0236811D01*
X0339926Y0236722D01*
X0340011Y0236630D01*
X0340093Y0236536D01*
X0340172Y0236439D01*
X0340247Y0236339D01*
X0340320Y0236238D01*
X0340389Y0236134D01*
X0340455Y0236027D01*
X0340517Y0235919D01*
X0340576Y0235809D01*
X0340632Y0235697D01*
X0340684Y0235583D01*
X0340732Y0235468D01*
X0340777Y0235352D01*
X0340817Y0235233D01*
X0340855Y0235114D01*
X0340888Y0234994D01*
X0340917Y0234872D01*
X0340943Y0234750D01*
X0340965Y0234627D01*
X0340982Y0234503D01*
X0340996Y0234379D01*
X0341006Y0234255D01*
X0341012Y0234130D01*
X0341014Y0234005D01*
X0341012Y0233880D01*
X0341006Y0233755D01*
X0340996Y0233631D01*
X0340982Y0233507D01*
X0340965Y0233383D01*
X0340943Y0233260D01*
X0340917Y0233138D01*
X0340888Y0233016D01*
X0340855Y0232896D01*
X0340817Y0232777D01*
X0340777Y0232658D01*
X0340732Y0232542D01*
X0340684Y0232427D01*
X0340632Y0232313D01*
X0340576Y0232201D01*
X0340517Y0232091D01*
X0340455Y0231983D01*
X0340389Y0231876D01*
X0340320Y0231772D01*
X0340247Y0231671D01*
X0340172Y0231571D01*
X0340093Y0231474D01*
X0340011Y0231380D01*
X0339926Y0231288D01*
X0339839Y0231199D01*
X0339748Y0231113D01*
X0339655Y0231030D01*
X0339559Y0230949D01*
X0339461Y0230872D01*
X0339361Y0230798D01*
X0339258Y0230727D01*
X0339153Y0230660D01*
X0339045Y0230595D01*
X0338936Y0230535D01*
X0338825Y0230477D01*
X0338712Y0230424D01*
X0338598Y0230374D01*
X0338482Y0230327D01*
X0338365Y0230285D01*
X0338246Y0230246D01*
X0338126Y0230210D01*
X0338005Y0230179D01*
X0337883Y0230151D01*
X0337761Y0230128D01*
X0337637Y0230108D01*
X0337513Y0230092D01*
X0337389Y0230080D01*
X0337264Y0230072D01*
X0337139Y0230068D01*
X0337015Y0230068D01*
X0336890Y0230072D01*
X0336765Y0230080D01*
X0336641Y0230092D01*
X0336517Y0230108D01*
X0336393Y0230128D01*
X0336271Y0230151D01*
X0336149Y0230179D01*
X0336028Y0230210D01*
X0335908Y0230246D01*
X0335789Y0230285D01*
X0335672Y0230327D01*
X0335556Y0230374D01*
X0335442Y0230424D01*
X0335329Y0230477D01*
X0335218Y0230535D01*
X0335108Y0230595D01*
X0335001Y0230660D01*
X0334896Y0230727D01*
X0334793Y0230798D01*
X0334693Y0230872D01*
X0334595Y0230949D01*
X0334499Y0231030D01*
X0334406Y0231113D01*
X0334315Y0231199D01*
X0334228Y0231288D01*
X0334143Y0231380D01*
X0334061Y0231474D01*
X0333982Y0231571D01*
X0333907Y0231671D01*
X0333834Y0231772D01*
X0333765Y0231876D01*
X0333699Y0231983D01*
X0333637Y0232091D01*
X0333578Y0232201D01*
X0333522Y0232313D01*
X0333470Y0232427D01*
X0333422Y0232542D01*
X0333377Y0232658D01*
X0333337Y0232777D01*
X0333299Y0232896D01*
X0333266Y0233016D01*
X0333237Y0233138D01*
X0333211Y0233260D01*
X0333189Y0233383D01*
X0333172Y0233507D01*
X0333158Y0233631D01*
X0333148Y0233755D01*
X0333142Y0233880D01*
X0333140Y0234005D01*
X0417538Y0233657D02*
X0417540Y0233810D01*
X0417546Y0233964D01*
X0417556Y0234117D01*
X0417570Y0234269D01*
X0417588Y0234422D01*
X0417610Y0234573D01*
X0417635Y0234724D01*
X0417665Y0234875D01*
X0417699Y0235025D01*
X0417736Y0235173D01*
X0417777Y0235321D01*
X0417822Y0235467D01*
X0417871Y0235613D01*
X0417924Y0235757D01*
X0417980Y0235899D01*
X0418040Y0236040D01*
X0418104Y0236180D01*
X0418171Y0236318D01*
X0418242Y0236454D01*
X0418317Y0236588D01*
X0418394Y0236720D01*
X0418476Y0236850D01*
X0418560Y0236978D01*
X0418648Y0237104D01*
X0418739Y0237227D01*
X0418833Y0237348D01*
X0418931Y0237466D01*
X0419031Y0237582D01*
X0419135Y0237695D01*
X0419241Y0237806D01*
X0419350Y0237914D01*
X0419462Y0238019D01*
X0419576Y0238120D01*
X0419694Y0238219D01*
X0419813Y0238315D01*
X0419935Y0238408D01*
X0420060Y0238497D01*
X0420187Y0238584D01*
X0420316Y0238666D01*
X0420447Y0238746D01*
X0420580Y0238822D01*
X0420715Y0238895D01*
X0420852Y0238964D01*
X0420991Y0239029D01*
X0421131Y0239091D01*
X0421273Y0239149D01*
X0421416Y0239204D01*
X0421561Y0239255D01*
X0421707Y0239302D01*
X0421854Y0239345D01*
X0422002Y0239384D01*
X0422151Y0239420D01*
X0422301Y0239451D01*
X0422452Y0239479D01*
X0422603Y0239503D01*
X0422756Y0239523D01*
X0422908Y0239539D01*
X0423061Y0239551D01*
X0423214Y0239559D01*
X0423367Y0239563D01*
X0423521Y0239563D01*
X0423674Y0239559D01*
X0423827Y0239551D01*
X0423980Y0239539D01*
X0424132Y0239523D01*
X0424285Y0239503D01*
X0424436Y0239479D01*
X0424587Y0239451D01*
X0424737Y0239420D01*
X0424886Y0239384D01*
X0425034Y0239345D01*
X0425181Y0239302D01*
X0425327Y0239255D01*
X0425472Y0239204D01*
X0425615Y0239149D01*
X0425757Y0239091D01*
X0425897Y0239029D01*
X0426036Y0238964D01*
X0426173Y0238895D01*
X0426308Y0238822D01*
X0426441Y0238746D01*
X0426572Y0238666D01*
X0426701Y0238584D01*
X0426828Y0238497D01*
X0426953Y0238408D01*
X0427075Y0238315D01*
X0427194Y0238219D01*
X0427312Y0238120D01*
X0427426Y0238019D01*
X0427538Y0237914D01*
X0427647Y0237806D01*
X0427753Y0237695D01*
X0427857Y0237582D01*
X0427957Y0237466D01*
X0428055Y0237348D01*
X0428149Y0237227D01*
X0428240Y0237104D01*
X0428328Y0236978D01*
X0428412Y0236850D01*
X0428494Y0236720D01*
X0428571Y0236588D01*
X0428646Y0236454D01*
X0428717Y0236318D01*
X0428784Y0236180D01*
X0428848Y0236040D01*
X0428908Y0235899D01*
X0428964Y0235757D01*
X0429017Y0235613D01*
X0429066Y0235467D01*
X0429111Y0235321D01*
X0429152Y0235173D01*
X0429189Y0235025D01*
X0429223Y0234875D01*
X0429253Y0234724D01*
X0429278Y0234573D01*
X0429300Y0234422D01*
X0429318Y0234269D01*
X0429332Y0234117D01*
X0429342Y0233964D01*
X0429348Y0233810D01*
X0429350Y0233657D01*
X0429348Y0233504D01*
X0429342Y0233350D01*
X0429332Y0233197D01*
X0429318Y0233045D01*
X0429300Y0232892D01*
X0429278Y0232741D01*
X0429253Y0232590D01*
X0429223Y0232439D01*
X0429189Y0232289D01*
X0429152Y0232141D01*
X0429111Y0231993D01*
X0429066Y0231847D01*
X0429017Y0231701D01*
X0428964Y0231557D01*
X0428908Y0231415D01*
X0428848Y0231274D01*
X0428784Y0231134D01*
X0428717Y0230996D01*
X0428646Y0230860D01*
X0428571Y0230726D01*
X0428494Y0230594D01*
X0428412Y0230464D01*
X0428328Y0230336D01*
X0428240Y0230210D01*
X0428149Y0230087D01*
X0428055Y0229966D01*
X0427957Y0229848D01*
X0427857Y0229732D01*
X0427753Y0229619D01*
X0427647Y0229508D01*
X0427538Y0229400D01*
X0427426Y0229295D01*
X0427312Y0229194D01*
X0427194Y0229095D01*
X0427075Y0228999D01*
X0426953Y0228906D01*
X0426828Y0228817D01*
X0426701Y0228730D01*
X0426572Y0228648D01*
X0426441Y0228568D01*
X0426308Y0228492D01*
X0426173Y0228419D01*
X0426036Y0228350D01*
X0425897Y0228285D01*
X0425757Y0228223D01*
X0425615Y0228165D01*
X0425472Y0228110D01*
X0425327Y0228059D01*
X0425181Y0228012D01*
X0425034Y0227969D01*
X0424886Y0227930D01*
X0424737Y0227894D01*
X0424587Y0227863D01*
X0424436Y0227835D01*
X0424285Y0227811D01*
X0424132Y0227791D01*
X0423980Y0227775D01*
X0423827Y0227763D01*
X0423674Y0227755D01*
X0423521Y0227751D01*
X0423367Y0227751D01*
X0423214Y0227755D01*
X0423061Y0227763D01*
X0422908Y0227775D01*
X0422756Y0227791D01*
X0422603Y0227811D01*
X0422452Y0227835D01*
X0422301Y0227863D01*
X0422151Y0227894D01*
X0422002Y0227930D01*
X0421854Y0227969D01*
X0421707Y0228012D01*
X0421561Y0228059D01*
X0421416Y0228110D01*
X0421273Y0228165D01*
X0421131Y0228223D01*
X0420991Y0228285D01*
X0420852Y0228350D01*
X0420715Y0228419D01*
X0420580Y0228492D01*
X0420447Y0228568D01*
X0420316Y0228648D01*
X0420187Y0228730D01*
X0420060Y0228817D01*
X0419935Y0228906D01*
X0419813Y0228999D01*
X0419694Y0229095D01*
X0419576Y0229194D01*
X0419462Y0229295D01*
X0419350Y0229400D01*
X0419241Y0229508D01*
X0419135Y0229619D01*
X0419031Y0229732D01*
X0418931Y0229848D01*
X0418833Y0229966D01*
X0418739Y0230087D01*
X0418648Y0230210D01*
X0418560Y0230336D01*
X0418476Y0230464D01*
X0418394Y0230594D01*
X0418317Y0230726D01*
X0418242Y0230860D01*
X0418171Y0230996D01*
X0418104Y0231134D01*
X0418040Y0231274D01*
X0417980Y0231415D01*
X0417924Y0231557D01*
X0417871Y0231701D01*
X0417822Y0231847D01*
X0417777Y0231993D01*
X0417736Y0232141D01*
X0417699Y0232289D01*
X0417665Y0232439D01*
X0417635Y0232590D01*
X0417610Y0232741D01*
X0417588Y0232892D01*
X0417570Y0233045D01*
X0417556Y0233197D01*
X0417546Y0233350D01*
X0417540Y0233504D01*
X0417538Y0233657D01*
X0417538Y0095862D02*
X0417540Y0096015D01*
X0417546Y0096169D01*
X0417556Y0096322D01*
X0417570Y0096474D01*
X0417588Y0096627D01*
X0417610Y0096778D01*
X0417635Y0096929D01*
X0417665Y0097080D01*
X0417699Y0097230D01*
X0417736Y0097378D01*
X0417777Y0097526D01*
X0417822Y0097672D01*
X0417871Y0097818D01*
X0417924Y0097962D01*
X0417980Y0098104D01*
X0418040Y0098245D01*
X0418104Y0098385D01*
X0418171Y0098523D01*
X0418242Y0098659D01*
X0418317Y0098793D01*
X0418394Y0098925D01*
X0418476Y0099055D01*
X0418560Y0099183D01*
X0418648Y0099309D01*
X0418739Y0099432D01*
X0418833Y0099553D01*
X0418931Y0099671D01*
X0419031Y0099787D01*
X0419135Y0099900D01*
X0419241Y0100011D01*
X0419350Y0100119D01*
X0419462Y0100224D01*
X0419576Y0100325D01*
X0419694Y0100424D01*
X0419813Y0100520D01*
X0419935Y0100613D01*
X0420060Y0100702D01*
X0420187Y0100789D01*
X0420316Y0100871D01*
X0420447Y0100951D01*
X0420580Y0101027D01*
X0420715Y0101100D01*
X0420852Y0101169D01*
X0420991Y0101234D01*
X0421131Y0101296D01*
X0421273Y0101354D01*
X0421416Y0101409D01*
X0421561Y0101460D01*
X0421707Y0101507D01*
X0421854Y0101550D01*
X0422002Y0101589D01*
X0422151Y0101625D01*
X0422301Y0101656D01*
X0422452Y0101684D01*
X0422603Y0101708D01*
X0422756Y0101728D01*
X0422908Y0101744D01*
X0423061Y0101756D01*
X0423214Y0101764D01*
X0423367Y0101768D01*
X0423521Y0101768D01*
X0423674Y0101764D01*
X0423827Y0101756D01*
X0423980Y0101744D01*
X0424132Y0101728D01*
X0424285Y0101708D01*
X0424436Y0101684D01*
X0424587Y0101656D01*
X0424737Y0101625D01*
X0424886Y0101589D01*
X0425034Y0101550D01*
X0425181Y0101507D01*
X0425327Y0101460D01*
X0425472Y0101409D01*
X0425615Y0101354D01*
X0425757Y0101296D01*
X0425897Y0101234D01*
X0426036Y0101169D01*
X0426173Y0101100D01*
X0426308Y0101027D01*
X0426441Y0100951D01*
X0426572Y0100871D01*
X0426701Y0100789D01*
X0426828Y0100702D01*
X0426953Y0100613D01*
X0427075Y0100520D01*
X0427194Y0100424D01*
X0427312Y0100325D01*
X0427426Y0100224D01*
X0427538Y0100119D01*
X0427647Y0100011D01*
X0427753Y0099900D01*
X0427857Y0099787D01*
X0427957Y0099671D01*
X0428055Y0099553D01*
X0428149Y0099432D01*
X0428240Y0099309D01*
X0428328Y0099183D01*
X0428412Y0099055D01*
X0428494Y0098925D01*
X0428571Y0098793D01*
X0428646Y0098659D01*
X0428717Y0098523D01*
X0428784Y0098385D01*
X0428848Y0098245D01*
X0428908Y0098104D01*
X0428964Y0097962D01*
X0429017Y0097818D01*
X0429066Y0097672D01*
X0429111Y0097526D01*
X0429152Y0097378D01*
X0429189Y0097230D01*
X0429223Y0097080D01*
X0429253Y0096929D01*
X0429278Y0096778D01*
X0429300Y0096627D01*
X0429318Y0096474D01*
X0429332Y0096322D01*
X0429342Y0096169D01*
X0429348Y0096015D01*
X0429350Y0095862D01*
X0429348Y0095709D01*
X0429342Y0095555D01*
X0429332Y0095402D01*
X0429318Y0095250D01*
X0429300Y0095097D01*
X0429278Y0094946D01*
X0429253Y0094795D01*
X0429223Y0094644D01*
X0429189Y0094494D01*
X0429152Y0094346D01*
X0429111Y0094198D01*
X0429066Y0094052D01*
X0429017Y0093906D01*
X0428964Y0093762D01*
X0428908Y0093620D01*
X0428848Y0093479D01*
X0428784Y0093339D01*
X0428717Y0093201D01*
X0428646Y0093065D01*
X0428571Y0092931D01*
X0428494Y0092799D01*
X0428412Y0092669D01*
X0428328Y0092541D01*
X0428240Y0092415D01*
X0428149Y0092292D01*
X0428055Y0092171D01*
X0427957Y0092053D01*
X0427857Y0091937D01*
X0427753Y0091824D01*
X0427647Y0091713D01*
X0427538Y0091605D01*
X0427426Y0091500D01*
X0427312Y0091399D01*
X0427194Y0091300D01*
X0427075Y0091204D01*
X0426953Y0091111D01*
X0426828Y0091022D01*
X0426701Y0090935D01*
X0426572Y0090853D01*
X0426441Y0090773D01*
X0426308Y0090697D01*
X0426173Y0090624D01*
X0426036Y0090555D01*
X0425897Y0090490D01*
X0425757Y0090428D01*
X0425615Y0090370D01*
X0425472Y0090315D01*
X0425327Y0090264D01*
X0425181Y0090217D01*
X0425034Y0090174D01*
X0424886Y0090135D01*
X0424737Y0090099D01*
X0424587Y0090068D01*
X0424436Y0090040D01*
X0424285Y0090016D01*
X0424132Y0089996D01*
X0423980Y0089980D01*
X0423827Y0089968D01*
X0423674Y0089960D01*
X0423521Y0089956D01*
X0423367Y0089956D01*
X0423214Y0089960D01*
X0423061Y0089968D01*
X0422908Y0089980D01*
X0422756Y0089996D01*
X0422603Y0090016D01*
X0422452Y0090040D01*
X0422301Y0090068D01*
X0422151Y0090099D01*
X0422002Y0090135D01*
X0421854Y0090174D01*
X0421707Y0090217D01*
X0421561Y0090264D01*
X0421416Y0090315D01*
X0421273Y0090370D01*
X0421131Y0090428D01*
X0420991Y0090490D01*
X0420852Y0090555D01*
X0420715Y0090624D01*
X0420580Y0090697D01*
X0420447Y0090773D01*
X0420316Y0090853D01*
X0420187Y0090935D01*
X0420060Y0091022D01*
X0419935Y0091111D01*
X0419813Y0091204D01*
X0419694Y0091300D01*
X0419576Y0091399D01*
X0419462Y0091500D01*
X0419350Y0091605D01*
X0419241Y0091713D01*
X0419135Y0091824D01*
X0419031Y0091937D01*
X0418931Y0092053D01*
X0418833Y0092171D01*
X0418739Y0092292D01*
X0418648Y0092415D01*
X0418560Y0092541D01*
X0418476Y0092669D01*
X0418394Y0092799D01*
X0418317Y0092931D01*
X0418242Y0093065D01*
X0418171Y0093201D01*
X0418104Y0093339D01*
X0418040Y0093479D01*
X0417980Y0093620D01*
X0417924Y0093762D01*
X0417871Y0093906D01*
X0417822Y0094052D01*
X0417777Y0094198D01*
X0417736Y0094346D01*
X0417699Y0094494D01*
X0417665Y0094644D01*
X0417635Y0094795D01*
X0417610Y0094946D01*
X0417588Y0095097D01*
X0417570Y0095250D01*
X0417556Y0095402D01*
X0417546Y0095555D01*
X0417540Y0095709D01*
X0417538Y0095862D01*
M02*
